<?xml version="1.0" standalone="no"?>
<!DOCTYPE svg PUBLIC "-//W3C//DTD SVG 1.1//EN" "http://www.w3.org/Graphics/SVG/1.1/DTD/svg11.dtd" >
<svg xmlns="http://www.w3.org/2000/svg">
<metadata>
Created by FontForge 20120731 at Mon Jun 12 09:48:42 2017
 By admin
</metadata>
<defs>
<font id="iconfont" horiz-adv-x="1024" >
  <font-face 
    font-family="iconfont"
    font-weight="500"
    font-stretch="normal"
    units-per-em="1024"
    panose-1="2 0 6 3 0 0 0 0 0 0"
    ascent="896"
    descent="-128"
    x-height="792"
    bbox="0 -128 1024 896"
    underline-thickness="0"
    underline-position="0"
    unicode-range="U+0078-E68F"
  />
<missing-glyph 
 />
    <glyph glyph-name=".notdef" 
 />
    <glyph glyph-name=".notdef" 
 />
    <glyph glyph-name=".null" horiz-adv-x="0" 
 />
    <glyph glyph-name="nonmarkingreturn" horiz-adv-x="341" 
 />
    <glyph glyph-name="x" unicode="x" horiz-adv-x="1001" 
d="M281 543q-27 -1 -53 -1h-83q-18 0 -36.5 -6t-32.5 -18.5t-23 -32t-9 -45.5v-76h912v41q0 16 -0.5 30t-0.5 18q0 13 -5 29t-17 29.5t-31.5 22.5t-49.5 9h-133v-97h-438v97zM955 310v-52q0 -23 0.5 -52t0.5 -58t-10.5 -47.5t-26 -30t-33 -16t-31.5 -4.5q-14 -1 -29.5 -0.5
t-29.5 0.5h-32l-45 128h-439l-44 -128h-29h-34q-20 0 -45 1q-25 0 -41 9.5t-25.5 23t-13.5 29.5t-4 30v167h911zM163 247q-12 0 -21 -8.5t-9 -21.5t9 -21.5t21 -8.5q13 0 22 8.5t9 21.5t-9 21.5t-22 8.5zM316 123q-8 -26 -14 -48q-5 -19 -10.5 -37t-7.5 -25t-3 -15t1 -14.5
t9.5 -10.5t21.5 -4h37h67h81h80h64h36q23 0 34 12t2 38q-5 13 -9.5 30.5t-9.5 34.5q-5 19 -11 39h-368zM336 498v228q0 11 2.5 23t10 21.5t20.5 15.5t34 6h188q31 0 51.5 -14.5t20.5 -52.5v-227h-327z" />
    <glyph glyph-name="binoculars" unicode="&#xe601;" 
d="M704 555zM576 555q0 -53 37.5 -90.5t90.5 -37.5t90.5 37.5t37.5 90.5t-37.5 90.5t-90.5 37.5t-90.5 -37.5t-37.5 -90.5zM320 555zM192 555q0 -53 37.5 -90.5t90.5 -37.5t90.5 37.5t37.5 90.5t-37.5 90.5t-90.5 37.5t-90.5 -37.5t-37.5 -90.5zM996 363l-326 -64h-314
l-326 64l92 168q17 31 47.5 48.5t65.5 17.5h559q35 0 65 -17.5t48 -48.5zM811 256zM597 256q0 -88 62.5 -150.5t151 -62.5t151 62.5t62.5 150.5t-62.5 150.5t-151 62.5t-151 -62.5t-62.5 -150.5zM213 256zM0 256q0 -88 62.5 -150.5t151 -62.5t151 62.5t62.5 150.5
t-62.5 150.5t-151 62.5t-151 -62.5t-62.5 -150.5v0zM512 299zM405 299q0 -44 31.5 -75.5t75.5 -31.5t75.5 31.5t31.5 75.5t-31.5 75t-75.5 31t-75.5 -31t-31.5 -75zM512 299zM469 298.5q0 -17.5 12.5 -30t30.5 -12.5t30.5 12.5t12.5 30t-12.5 30t-30.5 12.5t-30.5 -12.5
t-12.5 -30zM811 256zM661 256q0 -62 44 -105.5t105.5 -43.5t105.5 43.5t44 105.5t-44 105.5t-105.5 43.5t-105.5 -43.5t-44 -105.5zM213 256zM64 256q0 -62 44 -105.5t105.5 -43.5t105.5 43.5t44 105.5t-44 105.5t-105.5 43.5t-105.5 -43.5t-44 -105.5zM890 305
q-33 36 -79 36q-50 0 -79 -36q-6 -7 -5.5 -15t7.5 -15q7 -6 15 -5t15 7q19 21 48 21t48 -21q6 -6 14.5 -6t15.5 6q6 5 6 13.5t-6 14.5zM213 341q-49 0 -79 -36q-6 -7 -5 -15t8 -15q6 -6 14.5 -5t14.5 7q20 21 48.5 21t47.5 -21q7 -6 15.5 -6t14.5 6q14 14 2 30
q-34 34 -81 34z" />
    <glyph glyph-name="about" unicode="&#xe602;" 
d="M789 43h-554l-128 -128v725q0 53 37.5 90.5t90.5 37.5h554q53 0 90.5 -37.5t37.5 -90.5v-469q0 -53 -37.5 -90.5t-90.5 -37.5zM469 469h86v-234h-86v234zM512 576zM469 576q0 -18 12.5 -30.5t30.5 -12.5t30.5 12.5t12.5 30.5t-12.5 30.5t-30.5 12.5t-30.5 -12.5
t-12.5 -30.5z" />
    <glyph glyph-name="accept_database" unicode="&#xe603;" 
d="M811 747h-598q-17 0 -29.5 -12.5t-12.5 -30.5v-128q0 -18 12.5 -30.5t29.5 -12.5h598q17 0 29.5 12.5t12.5 30.5v128q0 18 -12.5 30.5t-29.5 12.5zM811 491h-598q-17 0 -29.5 -12.5t-12.5 -30.5v-128q0 -18 12.5 -30.5t29.5 -12.5h598q17 0 29.5 12.5t12.5 30.5v128
q0 18 -12.5 30.5t-29.5 12.5zM811 235h-598q-17 0 -29.5 -12.5t-12.5 -30.5v-128q0 -18 12.5 -30.5t29.5 -12.5h598q17 0 29.5 12.5t12.5 30.5v128q0 18 -12.5 30.5t-29.5 12.5zM811 85zM597 85.5q0 -88.5 62.5 -151t151 -62.5t151 62.5t62.5 151t-62.5 151t-151 62.5
t-151 -62.5t-62.5 -151zM907 186l-122 -122l-58 58l-44 -47l102 -103l166 167z" />
    <glyph glyph-name="add_image" unicode="&#xe604;" 
d="M853 21h-682q-36 0 -61 25t-25 61v554q0 36 25 61t61 25h682q36 0 61 -25t25 -61v-554q0 -36 -25 -61t-61 -25zM747 555zM683 554.5q0 -26.5 18.5 -45t45 -18.5t45.5 18.5t19 45t-19 45.5t-45.5 19t-45 -19t-18.5 -45.5zM427 555l-235 -342h469zM661 427l-170 -214h341z
M811 85zM597 85.5q0 -88.5 62.5 -151t151 -62.5t151 62.5t62.5 151t-62.5 151t-151 62.5t-151 -62.5t-62.5 -151zM768 213h85v-256h-85v256zM683 128h256v-85h-256v85z" />
    <glyph glyph-name="address_book" unicode="&#xe605;" 
d="M811 -43h-555v854h555q35 0 60 -25t25 -61v-682q0 -36 -25 -61t-60 -25zM213 811h43v-854h-43q-35 0 -60 25t-25 61v682q0 36 25 61t60 25zM768 380q-1 -71 -37 -109t-76 -34q-1 0 -8 1l-10.5 1.5t-10.5 3t-12 6t-11 9t-10 13.5q-27 -34 -66 -34q-19 0 -34 8t-22.5 20.5
t-11 21.5t-5.5 16q-4 30 -2 47q1 9 4 22.5t12 35t21.5 38.5t34.5 30t50 13q21 0 40 -7t27 -12t12 -9l-13 -145v-4v-6t0.5 -6t2 -7t4 -6t7 -4t9.5 -1q16 0 27 12.5t16 31t7 32t2 22.5q2 6 0 21.5t-3.5 35t-12 40.5t-25.5 38t-43.5 28.5t-65.5 11.5q-41 0 -73.5 -17.5
t-49.5 -40.5t-28.5 -53.5t-14.5 -49.5t-4 -36q-3 -37 3.5 -66.5t17 -48t27.5 -32t30.5 -20t31.5 -10t26 -4t17 -0.5q17 0 37 4t31.5 7.5t14.5 5.5l9 -43q-5 -3 -15.5 -7.5t-33 -10t-45.5 -5.5q-14 0 -27 1t-35.5 6t-41.5 13.5t-40 26t-35 41t-22.5 60.5t-7.5 82q2 16 4.5 28
t10 39t17 47t28 45t40.5 41.5t56 27.5t74.5 11t73 -10t53 -25t35.5 -37t22 -40.5t11.5 -42t5 -36t0.5 -26.5zM514 352q-3 -31 4 -49q7 -17 26 -17q6 0 9 2q8 4 10 6q3 2 11 13q4 4 8 22l11 115q-4 2 -15 2q-16 0 -25 -7q-7 -4 -20 -17q-8 -17 -12 -27q-2 -5 -3 -12t-2 -16.5
t-2 -14.5z" />
    <glyph glyph-name="answers" unicode="&#xe606;" 
d="M768 -43h-597v768h426l171 -170v-598zM853 43h-597v768h427l170 -171v-597zM821 619h-160v160zM499 258.5q0 8.5 2 12.5q1 2 3.5 5t3.5 6q0 1 10 6q5 2 13 2q11 0 15 -2q9 -4 11 -6.5t6 -10.5q2 -4 2 -12.5t-2 -13.5q-1 -2 -3 -5t-3 -5t-11 -7q-4 -2 -14.5 -2t-13.5 2
q-1 1 -5 3.5t-5 3.5q-2 2 -7 10q-2 5 -2 13.5zM557 324h-49l-9 209h64z" />
    <glyph glyph-name="approval" unicode="&#xe607;" 
d="M512 832l100 -77l124 17l47 -117l117 -47l-17 -124l77 -100l-77 -100l17 -124l-117 -47l-47 -117l-124 17l-100 -77l-100 77l-124 -17l-47 117l-117 47l17 124l-77 100l77 100l-17 124l117 47l47 117l124 -17zM738 585l-290 -291l-119 120l-60 -60l179 -179l350 350z" />
    <glyph glyph-name="alarm_clock" unicode="&#xe608;" 
d="M821 -55l-85 85l45 45l85 -86q10 -9 10 -22t-10 -22q-8 -8 -21.5 -8t-23.5 8zM203 -55l85 85l-45 45l-85 -86q-10 -9 -10 -22t10 -22q8 -8 21.5 -8t23.5 8zM512 384zM85 384q0 -116 57.5 -214t155.5 -155.5t214 -57.5t214 57.5t155.5 155.5t57.5 214t-57.5 214
t-155.5 155.5t-214 57.5t-214 -57.5t-155.5 -155.5t-57.5 -214zM512 384zM171 384q0 -93 45.5 -171.5t124 -124t171.5 -45.5t171.5 45.5t124 124t45.5 171.5t-45.5 171.5t-124 124t-171.5 45.5t-171.5 -45.5t-124 -124t-45.5 -171.5zM322 182l-12 12l196 196l12 -12z
M491 661h42v-277h-42v277zM667 263l-34 -34l-139 138l35 35zM512 384zM469 384q0 -18 12.5 -30.5t30.5 -12.5t30.5 12.5t12.5 30.5t-12.5 30.5t-30.5 12.5t-30.5 -12.5t-12.5 -30.5zM512 384zM491 384q0 -9 6 -15t15 -6t15 6t6 15t-6 15t-15 6t-15 -6t-6 -15zM469 875h86
v-64h-86v64zM947 550q40 56 34 126t-55.5 119.5t-119.5 55.5t-125 -34zM77 550q-40 56 -34 126t55.5 119.5t119.5 55.5t125 -34z" />
    <glyph glyph-name="assistant" unicode="&#xe609;" 
d="M213 341zM128 341.5q0 -35.5 25 -60.5t60.5 -25t60.5 25t25 60.5t-25 60.5t-60.5 25t-60.5 -25t-25 -60.5zM811 341zM725 341.5q0 -35.5 25 -60.5t60.5 -25t60.5 25t25 60.5t-25 60.5t-60.5 25t-60.5 -25t-25 -60.5zM832 491q0 49 -27.5 84.5t-72.5 54.5t-102.5 26.5
t-117.5 2.5t-117.5 -19.5t-102.5 -36t-72.5 -51t-27.5 -61.5v-214q0 -132 93.5 -226t226.5 -94t226.5 94t93.5 226v214zM512 832q-99 0 -182.5 -48.5t-132 -132t-48.5 -182.5v-72l43 -34v64l448 209l192 -209v-64l43 34v72q0 52 -14.5 103.5t-44.5 98.5t-72 82.5t-102 57
t-130 21.5zM661 341zM619 341v0q0 -17 12.5 -29.5t30 -12.5t30 12.5t12.5 29.5v0v0q0 18 -12.5 30.5t-30 12.5t-30 -12.5t-12.5 -30.5v0zM363 341zM320 341v0q0 -17 12.5 -29.5t30 -12.5t30 12.5t12.5 29.5v0v0q0 18 -12.5 30.5t-30 12.5t-30 -12.5t-12.5 -30.5v0z
M917.5 384q-9.5 0 -15.5 -6t-6 -15v149q0 92 -46 171t-124.5 124.5t-170.5 45.5h-150q-9 0 -15 -5.5t-6 -15.5t6 -15.5t15 -5.5h150q123 0 210.5 -88t87.5 -211v-213q0 -10 6 -16t15.5 -6t15.5 6t6 16v-43q0 -62 -43.5 -105.5t-105.5 -43.5h-235q-10 0 -15.5 -6t-5.5 -15.5
t5.5 -15.5t15.5 -6h235q80 0 136 56t56 136v107q0 9 -6 15t-15.5 6zM917 427h-21q-18 0 -30.5 -12.5t-12.5 -30.5v-85q0 -18 12.5 -30.5t30.5 -12.5h21q18 0 30.5 12.5t12.5 30.5v85q0 18 -12.5 30.5t-30.5 12.5zM512 85zM469 85.5q0 -17.5 12.5 -30t30.5 -12.5t30.5 12.5
t12.5 30t-12.5 30t-30.5 12.5t-30.5 -12.5t-12.5 -30z" />
    <glyph glyph-name="biotech" unicode="&#xe60a;" 
d="M768 811q0 -41 -8 -78t-19 -65t-33.5 -57t-40 -48t-51.5 -45.5t-54 -40.5t-60 -41q-5 -3 -7 -5q-35 -23 -51.5 -34.5t-49.5 -35.5t-51 -40t-45 -43t-42.5 -49.5t-34 -54.5t-28 -63.5t-16 -71t-6.5 -82.5h85q0 45 9 85.5t21.5 71.5t36.5 62.5t43.5 52.5t55 48t57.5 42
t63 42t63.5 42.5t60.5 45.5t60 53t49.5 59t42 71t25 81.5t10.5 97.5h-85zM811 21h-576q-10 0 -16 6t-6 15.5t6 15.5t16 6h576q9 0 15 -6t6 -15.5t-6 -15.5t-15 -6zM768 107h-512q-10 0 -15.5 5.5t-5.5 15.5t5.5 15.5t15.5 5.5h512q10 0 15.5 -5.5t5.5 -15.5t-5.5 -15.5
t-15.5 -5.5zM725 192h-426q-10 0 -16 6t-6 15.5t6 15.5t16 6h426q10 0 16 -6t6 -15.5t-6 -15.5t-16 -6zM619 277h-214q-9 0 -15 6t-6 15.5t6 15.5t15 6h214q9 0 15 -6t6 -15.5t-6 -15.5t-15 -6zM789 704h-576q-9 0 -15 6t-6 15.5t6 15.5t15 6h576q10 0 16 -6t6 -15.5
t-6 -15.5t-16 -6zM768 619h-512q-10 0 -15.5 5.5t-5.5 15.5t5.5 15.5t15.5 5.5h512q10 0 15.5 -5.5t5.5 -15.5t-5.5 -15.5t-15.5 -5.5zM725 533h-426q-10 0 -16 6t-6 15.5t6 15.5t16 6h426q10 0 16 -6t6 -15.5t-6 -15.5t-16 -6zM619 448h-214q-9 0 -15 6t-6 15.5t6 15.5
t15 6h214q9 0 15 -6t6 -15.5t-6 -15.5t-15 -6zM853 -43h-85q0 45 -9 85.5t-21.5 71.5t-36.5 62.5t-43.5 52.5t-55 48t-57.5 42t-63 42t-63.5 42.5t-60.5 45.5t-60 53t-49.5 59t-42 71t-25 81.5t-10.5 97.5h85q0 -41 8 -78t19 -65t33.5 -57t40 -48t51.5 -45.5t54 -40.5
t60 -41q5 -3 7 -5q35 -23 51.5 -34.5t49.5 -35.5t51 -40t45 -43t42.5 -49.5t34 -54.5t28 -63.5t16 -71t6.5 -82.5z" />
    <glyph glyph-name="business_contact" unicode="&#xe60c;" 
d="M853 747h-682q-36 0 -61 -25t-25 -61v-554q0 -36 25 -61t61 -25h106v28q-21 11 -21 36q0 18 12.5 30.5t30 12.5t30 -12.5t12.5 -30.5q0 -25 -21 -36v-28h384v28q-21 11 -21 36q0 18 12.5 30.5t30 12.5t30 -12.5t12.5 -30.5q0 -25 -21 -36v-28h106q36 0 61 25t25 61v554
q0 36 -25 61t-61 25zM512 512zM427 512q0 -35 25 -60t60 -25t60 25t25 60t-25 60t-60 25t-60 -25t-25 -60zM661 299q-1 3 -4.5 9t-16.5 20.5t-28.5 26t-42.5 20.5t-57 9t-57 -9t-43 -21.5t-28 -25t-17 -21.5l-4 -8v-43h298v43z" />
    <glyph glyph-name="businesswoman" unicode="&#xe60f;" 
d="M341 576h342v-384h-342v384zM853 -43h-682q0 48 13 89.5t32.5 68.5t46.5 49.5t49.5 35t46.5 21.5t33 11t13 3v0h214q5 -1 13 -3t32.5 -11t47 -21.5t49.5 -35t46.5 -49.5t32.5 -68.5t13 -89.5zM512 107q-21 0 -47.5 32.5t-43 62.5t-16.5 33v128h214v-128q-3 -6 -7 -14.5
t-17 -30.5t-25.5 -39t-28.5 -30.5t-29 -13.5zM704 597q0 39 -28.5 64t-71 32.5t-92.5 4t-92.5 -16.5t-71 -35.5t-28.5 -48.5v-149q0 -80 56 -136t136 -56t136 56t56 136v149zM512 811q-30 0 -58.5 -5t-61.5 -19.5t-61 -37.5t-54 -61.5t-44.5 -89.5t-29.5 -123.5t-11 -160.5
l149 -101v278l256 149l86 -107v-320l149 128q0 24 -1.5 51t-7 71t-14.5 82.5t-27 81t-42 72.5t-61 49.5t-82 19.5l-21 43h-64zM512 85q-26 0 -47 15.5t-31.5 37.5t-17.5 44t-9 37l-2 16q3 -4 6.5 -9.5t15.5 -20.5t24.5 -26t29 -20.5t31.5 -9.5t31.5 9t29.5 21.5t23.5 25
t16.5 21.5l6 9q-1 -6 -2.5 -16.5t-8.5 -36t-17.5 -45t-31.5 -36t-47 -16.5zM597 448zM576 448q0 -9 6.5 -15t15 -6t15 6t6.5 15t-6.5 15t-15 6t-15 -6t-6.5 -15zM427 448zM405 448q0 -9 6.5 -15t15 -6t15 6t6.5 15t-6.5 15t-15 6t-15 -6t-6.5 -15z" />
    <glyph glyph-name="businessman" unicode="&#xe610;" 
d="M512 107l-107 128v128h214v-128zM704 491zM661 490.5q0 -17.5 12.5 -30t30.5 -12.5t30.5 12.5t12.5 30t-12.5 30t-30.5 12.5t-30.5 -12.5t-12.5 -30zM320 491zM277 490.5q0 -17.5 12.5 -30t30.5 -12.5t30.5 12.5t12.5 30t-12.5 30t-30.5 12.5t-30.5 -12.5t-12.5 -30z
M704 619q0 38 -28.5 63t-71 33t-92.5 4.5t-92.5 -17t-71 -36t-28.5 -47.5v-150q0 -80 56 -136t136 -56t136 56t56 136v150zM512 811q-96 0 -154.5 -67.5t-58.5 -167.5v-49l42 -36v106l256 86l86 -86v-106l42 36v49q0 35 -5 63.5t-18.5 56t-39.5 46t-65 26.5l-21 43h-64z
M597 491zM576 490.5q0 -8.5 6.5 -15t15 -6.5t15 6.5t6.5 15t-6.5 15t-15 6.5t-15 -6.5t-6.5 -15zM427 491zM405 490.5q0 -8.5 6.5 -15t15 -6.5t15 6.5t6.5 15t-6.5 15t-15 6.5t-15 -6.5t-6.5 -15zM512 -21l-107 256l107 -22l107 22zM491 149l-15 -96l36 -85l36 85l-15 96
l22 22l-43 42l-43 -42zM619 235l-107 -256l-107 256q-5 -1 -13 -3t-32.5 -11t-47 -21.5t-49.5 -35t-46.5 -49.5t-32.5 -68.5t-13 -89.5h682q0 166 -147 245q-47 25 -87 33z" />
    <glyph glyph-name="butting_in" unicode="&#xe611;" 
d="M512 832q-122 0 -225 -60t-163 -163t-60 -225t60 -225t163 -163t225 -60q15 0 21 2v892q-6 2 -21 2zM533 830v-894q133 6 235 79v736q-107 76 -235 79zM437 619q-102 -5 -174.5 -80.5t-70.5 -177.5q0 -89 58 -160q49 -60 49 -131v-81q100 -53 213 -53q15 0 21 2
q13 0 43 4v201q59 34 93.5 92.5t34.5 129.5q0 108 -78.5 183t-188.5 71zM619 73l-86 12v192h171l-15 -149q-3 -26 -23.5 -42.5t-46.5 -12.5zM832 277l-149 -42l-22 106l22 86zM629 352zM597 352q0 -13 9.5 -22.5t23 -9.5t22.5 9.5t9 22.5t-9 22.5t-22.5 9.5t-23 -9.5
t-9.5 -22.5zM448 640q-115 0 -196 -81t-81 -196q0 -46 11 -82.5t28.5 -61.5t35 -45.5t33 -43t20.5 -45.5l85 64v171l107 43l21 85q48 0 88 45.5t40 84.5q-33 30 -84.5 46t-107.5 16zM405 320zM341 320q0 -26 19 -45t45.5 -19t45 19t18.5 45t-18.5 45t-45 19t-45.5 -19
t-19 -45zM960 384q0 111 -52 208t-140 159v-734q88 62 140 159t52 208zM427 -55q55 -9 85 -9q15 0 21 2q13 0 43 4v139l-149 21v-157z" />
    <glyph glyph-name="calculator" unicode="&#xe612;" 
d="M853 555h-682v-512q0 -36 25 -61t60 -25h512q35 0 60 25t25 61v512zM768 811h-512q-35 0 -60 -25t-25 -61v-192h682v192q0 36 -25 61t-60 25zM768 597h-512q-10 0 -15.5 6t-5.5 16v106q0 10 5.5 16t15.5 6h512q10 0 15.5 -6t5.5 -16v-106q0 -10 -5.5 -16t-15.5 -6z
M704 683h43v-43h-43v43zM619 683h42v-43h-42v43zM768 405h-64q-10 0 -15.5 6t-5.5 16v42q0 10 5.5 16t15.5 6h64q10 0 15.5 -6t5.5 -16v-42q0 -10 -5.5 -16t-15.5 -6zM320 405h-64q-10 0 -15.5 6t-5.5 16v42q0 10 5.5 16t15.5 6h64q10 0 15.5 -6t5.5 -16v-42q0 -10 -5.5 -16
t-15.5 -6zM469 405h-64q-9 0 -15 6t-6 16v42q0 10 6 16t15 6h64q10 0 16 -6t6 -16v-42q0 -10 -6 -16t-16 -6zM619 405h-64q-10 0 -16 6t-6 16v42q0 10 6 16t16 6h64q9 0 15 -6t6 -16v-42q0 -10 -6 -16t-15 -6zM320 277h-64q-10 0 -15.5 6t-5.5 16v42q0 10 5.5 16t15.5 6h64
q10 0 15.5 -6t5.5 -16v-42q0 -10 -5.5 -16t-15.5 -6zM469 277h-64q-9 0 -15 6t-6 16v42q0 10 6 16t15 6h64q10 0 16 -6t6 -16v-42q0 -10 -6 -16t-16 -6zM619 277h-64q-10 0 -16 6t-6 16v42q0 10 6 16t16 6h64q9 0 15 -6t6 -16v-42q0 -10 -6 -16t-15 -6zM320 149h-64
q-10 0 -15.5 6t-5.5 16v42q0 10 5.5 16t15.5 6h64q10 0 15.5 -6t5.5 -16v-42q0 -10 -5.5 -16t-15.5 -6zM469 149h-64q-9 0 -15 6t-6 16v42q0 10 6 16t15 6h64q10 0 16 -6t6 -16v-42q0 -10 -6 -16t-16 -6zM619 149h-64q-10 0 -16 6t-6 16v42q0 10 6 16t16 6h64q9 0 15 -6
t6 -16v-42q0 -10 -6 -16t-15 -6zM320 21h-64q-10 0 -15.5 6t-5.5 16v42q0 10 5.5 16t15.5 6h64q10 0 15.5 -6t5.5 -16v-42q0 -10 -5.5 -16t-15.5 -6zM469 21h-64q-9 0 -15 6t-6 16v42q0 10 6 16t15 6h64q10 0 16 -6t6 -16v-42q0 -10 -6 -16t-16 -6zM619 21h-64q-10 0 -16 6
t-6 16v42q0 10 6 16t16 6h64q9 0 15 -6t6 -16v-42q0 -10 -6 -16t-15 -6zM768 277h-64q-10 0 -15.5 6t-5.5 16v42q0 10 5.5 16t15.5 6h64q10 0 15.5 -6t5.5 -16v-42q0 -10 -5.5 -16t-15.5 -6zM768 149h-64q-10 0 -15.5 6t-5.5 16v42q0 10 5.5 16t15.5 6h64q10 0 15.5 -6
t5.5 -16v-42q0 -10 -5.5 -16t-15.5 -6zM768 21h-64q-10 0 -15.5 6t-5.5 16v42q0 10 5.5 16t15.5 6h64q10 0 15.5 -6t5.5 -16v-42q0 -10 -5.5 -16t-15.5 -6z" />
    <glyph glyph-name="calendar" unicode="&#xe613;" 
d="M107 85v512h810v-512q0 -35 -25 -60t-60 -25h-640q-35 0 -60 25t-25 60zM917 683v-128h-810v128q0 35 25 60t60 25h640q35 0 60 -25t25 -60zM704 683zM640 682.5q0 -26.5 19 -45t45 -18.5t45 18.5t19 45t-19 45.5t-45 19t-45 -19t-19 -45.5zM320 683zM256 682.5
q0 -26.5 19 -45t45 -18.5t45 18.5t19 45t-19 45.5t-45 19t-45 -19t-19 -45.5zM704 832q-18 0 -30.5 -12.5t-12.5 -30.5v-106q0 -18 12.5 -30.5t30.5 -12.5t30.5 12.5t12.5 30.5v106q0 18 -12.5 30.5t-30.5 12.5zM320 832q-18 0 -30.5 -12.5t-12.5 -30.5v-106
q0 -18 12.5 -30.5t30.5 -12.5t30.5 12.5t12.5 30.5v106q0 18 -12.5 30.5t-30.5 12.5zM277 469h86v-85h-86v85zM405 469h86v-85h-86v85zM533 469h86v-85h-86v85zM661 469h86v-85h-86v85zM277 341h86v-85h-86v85zM405 341h86v-85h-86v85zM533 341h86v-85h-86v85zM661 341h86
v-85h-86v85zM277 213h86v-85h-86v85zM405 213h86v-85h-86v85zM533 213h86v-85h-86v85zM661 213h86v-85h-86v85z" />
    <glyph glyph-name="camcorder_pro" unicode="&#xe614;" 
d="M576 725h213v-85h-213v85zM576 725h-207q-50 0 -75 -44l-70 -128l75 -41l70 128h207v-154h85v154q0 35 -25 60t-60 25zM640 43h-512q-35 0 -60 25t-25 60v341q0 36 25 61t60 25h512q35 0 60 -25t25 -61v-341q0 -35 -25 -60t-60 -25zM811 149l106 -106h64v469h-64
l-106 -107v-256zM469 149h-298q-18 0 -30.5 12.5t-12.5 30.5v213q0 18 12.5 30.5t30.5 12.5h298q18 0 30.5 -12.5t12.5 -30.5v-213q0 -18 -12.5 -30.5t-30.5 -12.5zM725 405h86v-256h-86v256zM875 619h-86q-9 0 -15 5.5t-6 15.5v85q0 10 6 16t15 6h86q27 0 45.5 -18.5
t18.5 -46t-18.5 -45.5t-45.5 -18zM171 405h298v-213h-298v213zM288 352l-96 -139h192zM416 352zM384 352q0 -13 9.5 -22.5t22.5 -9.5t22.5 9.5t9.5 22.5t-9.5 22.5t-22.5 9.5t-22.5 -9.5t-9.5 -22.5zM373 307l-74 -94h149z" />
    <glyph glyph-name="camcorder" unicode="&#xe615;" 
d="M427 0h-214q-35 0 -60 25t-25 60v491q0 80 56 136t136 56t136 -56t56 -136v-491q0 -35 -25 -60t-60 -25zM320 576zM171 576q0 -62 43.5 -105.5t105.5 -43.5t105.5 43.5t43.5 105.5t-43.5 105.5t-105.5 43.5t-105.5 -43.5t-43.5 -105.5zM320 576zM209 576
q0 -46 32.5 -78.5t78.5 -32.5t78.5 32.5t32.5 78.5t-32.5 78.5t-78.5 32.5t-78.5 -32.5t-32.5 -78.5zM390 619q-28 32 -70 32t-70 -32q-12 -16 2 -26q15 -11 25 2q16 19 42 19t42 -19q6 -6 14 -6q5 0 13 4q6 5 6.5 13t-4.5 13zM853 235h-256q-17 0 -29.5 12.5t-12.5 29.5
v214q0 17 12.5 29.5t29.5 12.5h256q18 0 30.5 -12.5t12.5 -29.5v-214q0 -17 -12.5 -29.5t-30.5 -12.5zM512 491h43v-214h-43v214zM597 491h256v-214h-256v214zM704 422l-85 -123h170zM800 437zM779 437.5q0 -8.5 6 -15t15 -6.5t15 6.5t6 15t-6 15t-15 6.5t-15 -6.5t-6 -15z
M768 380l-64 -81h128zM320 149zM256 149.5q0 -26.5 19 -45.5t45 -19t45 19t19 45.5t-19 45t-45 18.5t-45 -18.5t-19 -45zM320 149zM277 149.5q0 -17.5 12.5 -30t30.5 -12.5t30.5 12.5t12.5 30t-12.5 30t-30.5 12.5t-30.5 -12.5t-12.5 -30z" />
    <glyph glyph-name="cancel" unicode="&#xe616;" 
d="M512 768q-158 0 -271 -113t-113 -271t113 -271t271 -113t271 113t113 271t-113 271t-271 113zM512 683q95 0 179 -60l-418 -418q-60 84 -60 179q0 123 88 211t211 88zM512 85q-95 0 -179 60l418 418q60 -84 60 -179q0 -123 -88 -211t-211 -88z" />
    <glyph glyph-name="camera" unicode="&#xe617;" 
d="M723 638h-420l72 109q13 19 37 19h205q23 0 36 -19zM299 661h-128v39q0 11 7 18t18 7h77q11 0 18.5 -7t7.5 -18v-39zM853 0h-682q-36 0 -61 25t-25 60v512q0 36 25 61t61 25h682q36 0 61 -25t25 -61v-512q0 -35 -25 -60t-61 -25v0zM512 341zM256 341q0 -106 75 -181
t181 -75t181 75t75 181t-75 181t-181 75t-181 -75t-75 -181zM512 341zM320 341.5q0 -79.5 56.5 -136t135.5 -56.5t135.5 56.5t56.5 136t-56.5 135.5t-135.5 56t-135.5 -56t-56.5 -135.5zM619 405q-41 47 -103 47t-102 -47q-8 -8 -7 -19t9 -19t19 -7t19 9q24 27 62 27t62 -27
q9 -8 21 -8q10 0 20 6q6 7 6.5 18.5t-6.5 19.5zM192 608v0q0 -13 12.5 -22.5t30 -9.5t30 9.5t12.5 22.5v0v0q0 13 -12.5 22.5t-30 9.5t-30 -9.5t-12.5 -22.5v0z" />
    <glyph glyph-name="camera_identification" unicode="&#xe618;" 
d="M723 638h-420l72 109q13 19 37 19h204q24 0 36 -19zM299 662h-128v38q0 11 7 18.5t18 7.5h77q11 0 18.5 -7.5t7.5 -18.5v-38zM853 1h-682q-35 0 -60 25t-25 60v512q0 35 25 60t60 25h682q35 0 60 -25t25 -60v-512q0 -35 -25 -60t-60 -25v0zM512 342zM256 342
q0 -106 75 -181t181 -75t180.5 75t74.5 181t-74.5 181t-180.5 75t-181 -75t-75 -181zM512 342zM320 342v0q0 -79 56 -135.5t135.5 -56.5t135.5 56.5t56 135.5v0q0 79 -56 135.5t-135.5 56.5t-135.5 -56.5t-56 -135.5v0zM829 29l37 36l156 -157l-36 -36zM746 150zM533 150.5
q0 -88.5 62.5 -151t150.5 -62.5t150.5 62.5t62.5 151t-62.5 150.5t-150.5 62t-150.5 -62t-62.5 -150.5zM902 -44l36 36l84 -84l-36 -36zM746 150zM576 150.5q0 -70.5 49.5 -120.5t120.5 -50t120.5 50t49.5 120.5t-49.5 120.5t-120.5 50t-120.5 -50t-49.5 -120.5zM838 227
q-36 43 -90 43q-57 0 -89 -43q-7 -10 2 -19q10 -7 19 2q26 32 70 32q42 0 71 -32q4 -4 10.5 -4t8.5 2q4 9 -2 19zM618 406q-40 47 -102 47t-102 -47q-8 -8 -7 -19t9 -19t19 -7t19 9q24 27 62 27t62 -27q8 -9 21 -9q10 0 19 7q7 6 7.5 18t-7.5 20zM192 608v0
q0 -13 12.5 -22.5t30 -9.5t30 9.5t12.5 22.5v0v0q0 14 -12.5 23t-30 9t-30 -9t-12.5 -23v0z" />
    <glyph glyph-name="cell_phone" unicode="&#xe619;" 
d="M256 43v640h427q35 0 60 -25t25 -61v-554q0 -36 -25 -61t-60 -25h-342q-35 0 -60 25t-25 61zM683 619h-342q-9 0 -15 -6t-6 -16v-170q0 -10 6 -16t15 -6h342q9 0 15 6t6 16v170q0 10 -6 16t-15 6zM405 256h-42q-10 0 -16 6t-6 15v22q0 9 6 15t16 6h42q10 0 16 -6t6 -15
v-22q0 -9 -6 -15t-16 -6zM533 256h-42q-10 0 -16 6t-6 15v22q0 9 6 15t16 6h42q10 0 16 -6t6 -15v-22q0 -9 -6 -15t-16 -6zM661 256h-42q-10 0 -16 6t-6 15v22q0 9 6 15t16 6h42q10 0 16 -6t6 -15v-22q0 -9 -6 -15t-16 -6zM405 149h-42q-10 0 -16 6t-6 16v21q0 10 6 15.5
t16 5.5h42q10 0 16 -5.5t6 -15.5v-21q0 -10 -6 -16t-16 -6zM533 149h-42q-10 0 -16 6t-6 16v21q0 10 6 15.5t16 5.5h42q10 0 16 -5.5t6 -15.5v-21q0 -10 -6 -16t-16 -6zM661 149h-42q-10 0 -16 6t-6 16v21q0 10 6 15.5t16 5.5h42q10 0 16 -5.5t6 -15.5v-21q0 -10 -6 -16
t-16 -6zM405 43h-42q-10 0 -16 5.5t-6 15.5v21q0 10 6 16t16 6h42q10 0 16 -6t6 -16v-21q0 -10 -6 -15.5t-16 -5.5zM533 43h-42q-10 0 -16 5.5t-6 15.5v21q0 10 6 16t16 6h42q10 0 16 -6t6 -16v-21q0 -10 -6 -15.5t-16 -5.5zM661 43h-42q-10 0 -16 5.5t-6 15.5v21q0 10 6 16
t16 6h42q10 0 16 -6t6 -16v-21q0 -10 -6 -15.5t-16 -5.5zM341 683h-85v128q0 17 12.5 29.5t30 12.5t30 -12.5t12.5 -29.5v-128z" />
    <glyph glyph-name="clapperboard" unicode="&#xe61a;" 
d="M926 719l-841 -143l-6 43q-6 35 14.5 63t55.5 35l674 113q35 6 63.5 -14.5t35.5 -56.5zM853 21h-682q-36 0 -61 25t-25 61v469h854v-469q0 -36 -25 -61t-61 -25zM401 759l105 -113l85 15l-107 113zM233 732l104 -113l85 15l-106 111zM570 787l104 -111l83 13l-104 113z
M736 815l107 -111l83 15l-105 111zM160 651zM128 650.5q0 -13.5 9.5 -22.5t22.5 -9t22.5 9t9.5 22.5t-9.5 23t-22.5 9.5t-22.5 -9.5t-9.5 -23zM853 576l-85 -128h85l86 128h-86zM683 576l-86 -128h86l85 128h-85zM512 576l-85 -128h85l85 128h-85zM341 576l-85 -128h85
l86 128h-86zM171 576l-86 -128h86l85 128h-85z" />
    <glyph glyph-name="clock" unicode="&#xe61b;" 
d="M512 384zM85 384q0 -116 57.5 -214t155.5 -155.5t214 -57.5t214 57.5t155.5 155.5t57.5 214t-57.5 214t-155.5 155.5t-214 57.5t-214 -57.5t-155.5 -155.5t-57.5 -214zM512 384zM171 384q0 -93 45.5 -171.5t124 -124t171.5 -45.5t171.5 45.5t124 124t45.5 171.5
t-45.5 171.5t-124 124t-171.5 45.5t-171.5 -45.5t-124 -124t-45.5 -171.5zM491 661h42v-277h-42v277zM667 263l-34 -34l-139 138l35 35zM512 384zM469 384q0 -18 12.5 -30.5t30.5 -12.5t30.5 12.5t12.5 30.5t-12.5 30.5t-30.5 12.5t-30.5 -12.5t-12.5 -30.5zM512 384z
M491 384q0 -9 6 -15t15 -6t15 6t6 15t-6 15t-15 6t-15 -6t-6 -15z" />
    <glyph glyph-name="close_up_mode" unicode="&#xe61c;" 
d="M107 384q0 -83 18 -149.5t44.5 -107.5t65.5 -71.5t71 -44.5t71.5 -22t56.5 -9t35 -1h86q-1 7 -3.5 20t-14.5 50.5t-30 72.5t-53 79.5t-80 79t-114.5 63.5t-152.5 40zM469 341h86v-362h-86v362zM725 555q0 -39 -18 -73t-45 -55.5t-55.5 -34t-51.5 -12.5q-13 0 -21.5 3.5
t-13.5 12.5t-7.5 18t-2.5 26.5v31.5t1 39t1 44q0 30 11 61.5t26.5 54.5t31.5 42t27 28l11 10q4 -4 11 -10.5t25.5 -27.5t32.5 -42.5t25.5 -53.5t11.5 -62zM299 555q0 -39 18 -73t45 -55.5t55.5 -34t51.5 -12.5q13 0 21.5 3.5t13.5 12.5t7.5 18t2.5 26.5v31.5t-1 39t-1 44
q0 30 -11 61.5t-26.5 54.5t-31.5 42t-27 28l-11 10q-4 -4 -11 -10.5t-25.5 -27.5t-32.5 -42.5t-25.5 -53.5t-11.5 -62zM512 320q-24 18 -28 43.5t15.5 62.5t63.5 82q26 26 48 60.5t35 64.5t21.5 56.5t11.5 41.5l4 16q4 -3 11 -8.5t25.5 -24.5t32.5 -40t25.5 -53.5
t11.5 -65.5q0 -96 -80.5 -165.5t-196.5 -69.5zM512 320q24 18 28 43.5t-15.5 62.5t-63.5 82q-26 26 -48 60.5t-35 64.5t-21.5 56.5t-11.5 41.5l-4 16q-4 -3 -11 -8.5t-25.5 -24.5t-32.5 -40t-25.5 -53.5t-11.5 -65.5q0 -96 80.5 -165.5t196.5 -69.5zM640 555
q0 -98 -37.5 -166.5t-90.5 -68.5t-90.5 68.5t-37.5 166.5q0 36 13 73.5t32 65t38 50t32 34.5l13 11q5 -4 13.5 -12t31 -33t39 -51t30.5 -64t14 -74zM469 -21h86q18 0 35 1t56.5 9t71.5 22t71 44.5t65.5 71.5t44.5 107.5t18 149.5q-83 -11 -152.5 -39.5t-114.5 -64t-80 -78.5
t-53 -80.5t-29.5 -72t-15 -51t-3.5 -19.5z" />
    <glyph glyph-name="collaboration" unicode="&#xe61d;" 
d="M533 427h278l128 -128v362q0 36 -25 61t-61 25h-320q-35 0 -60 -25t-25 -61v-149q0 -35 25 -60t60 -25zM491 491h-278l-128 -128v362q0 36 25 61t61 25h320q35 0 60 -25t25 -61v-149q0 -35 -25 -60t-60 -25zM256 235zM149 235q0 -44 31.5 -75.5t75.5 -31.5t75.5 31.5
t31.5 75.5t-31.5 75t-75.5 31t-75.5 -31t-31.5 -75zM768 235zM661 235q0 -44 31.5 -75.5t75.5 -31.5t75.5 31.5t31.5 75.5t-31.5 75t-75.5 31t-75.5 -31t-31.5 -75zM427 0l-6 9t-19 20.5t-32.5 26t-48 20.5t-65.5 9q-104 0 -161 -71l-10 -14v-43h342v43zM939 0l-6 9
t-19 20.5t-32.5 26t-48 20.5t-65.5 9t-65 -8.5t-48.5 -21t-32.5 -25.5t-19.5 -21t-5.5 -9v-43h342v43z" />
    <glyph glyph-name="collect" unicode="&#xe61e;" 
d="M469 149h86v-234h-86v234zM512 265l149 -180h-298zM469 853h86v-234h-86v234zM512 503l-149 180h298zM43 427h234v-86h-234v86zM393 384l-180 -149v298zM747 427h234v-86h-234v86zM631 384l180 149v-298zM512 384zM448 384q0 -26 19 -45t45 -19t45 19t19 45t-19 45
t-45 19t-45 -19t-19 -45z" />
    <glyph glyph-name="combo_chart" unicode="&#xe61f;" 
d="M789 512h128v-512h-128v512zM619 341h128v-341h-128v341zM448 427h128v-427h-128v427zM277 213h128v-213h-128v213zM107 299h128v-299h-128v299zM171 555zM107 554.5q0 -26.5 18.5 -45t45 -18.5t45.5 18.5t19 45t-19 45.5t-45.5 19t-45 -19t-18.5 -45.5zM341 512z
M277 512q0 -26 19 -45t45.5 -19t45 19t18.5 45t-18.5 45t-45 19t-45.5 -19t-19 -45zM512 661zM448 661.5q0 -26.5 19 -45.5t45 -19t45 19t19 45.5t-19 45t-45 18.5t-45 -18.5t-19 -45zM683 619zM619 618.5q0 -26.5 18.5 -45t45 -18.5t45.5 18.5t19 45t-19 45.5t-45.5 19
t-45 -19t-18.5 -45.5zM853 704zM789 704q0 -26 19 -45t45.5 -19t45 19t18.5 45t-18.5 45t-45 19t-45.5 -19t-19 -45zM834 742l-156 -79l-177 45l-170 -149l-150 36l-21 -81l192 -49l171 149l164 -40l186 92z" />
    <glyph glyph-name="comments" unicode="&#xe620;" 
d="M789 64h-554l-128 -128v725q0 53 37.5 90.5t90.5 37.5h554q53 0 90.5 -37.5t37.5 -90.5v-469q0 -53 -37.5 -90.5t-90.5 -37.5z" />
    <glyph glyph-name="compact_camera" unicode="&#xe621;" 
d="M853 64h-682q-36 0 -61 25t-25 60v470q0 35 25 60t61 25h682q36 0 61 -25t25 -60v-470q0 -35 -25 -60t-61 -25zM619 384zM363 384q0 -106 75 -181t181 -75t181 75t75 181t-75 181t-181 75t-181 -75t-75 -181zM619 384zM427 384q0 -79 56 -135.5t135.5 -56.5t136 56.5
t56.5 135.5t-56.5 135.5t-136 56.5t-135.5 -56.5t-56 -135.5zM721 448q-40 47 -102.5 47t-102.5 -47q-8 -8 -7 -19t9 -19q9 -8 20 -7t19 9q24 27 62 27t62 -27q8 -9 21 -9q9 0 19 7q7 6 7.5 18t-7.5 20zM171 619h128v-64h-128v64z" />
    <glyph glyph-name="conference_call" unicode="&#xe622;" 
d="M256 448zM149 448q0 -44 31.5 -75.5t75.5 -31.5t75.5 31.5t31.5 75.5t-31.5 75.5t-75.5 31.5t-75.5 -31.5t-31.5 -75.5zM43 156q2 5 7 14t23.5 32.5t41 41t60.5 32t81 14.5t81 -14t61 -33.5t40 -39.5t24 -33l7 -14v-71h-426v71zM981 156q-2 5 -7 14t-23.5 32.5t-41 41
t-60.5 32t-81 14.5t-81 -14t-61 -33.5t-40 -39.5t-24 -33l-7 -14v-71h426v71zM512 533zM384 533q0 -53 37.5 -90.5t90.5 -37.5t90.5 37.5t37.5 90.5t-37.5 90.5t-90.5 37.5t-90.5 -37.5t-37.5 -90.5zM768 169q-3 6 -9 17t-28 38.5t-48.5 48.5t-72.5 38.5t-98 17.5
t-97.5 -16.5t-73.5 -40t-48 -47.5t-29 -40l-8 -16v-84h512v84zM768 448zM661 448q0 -44 31.5 -75.5t75.5 -31.5t75.5 31.5t31.5 75.5t-31.5 75.5t-75.5 31.5t-75.5 -31.5t-31.5 -75.5zM256 448zM149 448q0 -44 31.5 -75.5t75.5 -31.5t75.5 31.5t31.5 75.5t-31.5 75.5
t-75.5 31.5t-75.5 -31.5t-31.5 -75.5zM768 448zM661 448q0 -44 31.5 -75.5t75.5 -31.5t75.5 31.5t31.5 75.5t-31.5 75.5t-75.5 31.5t-75.5 -31.5t-31.5 -75.5z" />
    <glyph glyph-name="contacts" unicode="&#xe623;" 
d="M811 -43h-555v854h555q35 0 60 -25t25 -61v-682q0 -36 -25 -61t-60 -25zM213 811h43v-854h-43q-35 0 -60 25t-25 61v682q0 36 25 61t60 25zM555 469zM469 469.5q0 -35.5 25 -60.5t60.5 -25t60.5 25t25 60.5t-25 60.5t-60.5 25t-60.5 -25t-25 -60.5zM704 256q-2 3 -5 9
t-16 20.5t-28.5 26t-42.5 20.5t-57.5 9t-57 -8.5t-42.5 -21t-28 -25t-17 -21.5l-5 -9v-43h299v43z" />
    <glyph glyph-name="data_backup" unicode="&#xe624;" 
d="M811 747h-598q-17 0 -29.5 -12.5t-12.5 -30.5v-128q0 -18 12.5 -30.5t29.5 -12.5h598q17 0 29.5 12.5t12.5 30.5v128q0 18 -12.5 30.5t-29.5 12.5zM811 491h-598q-17 0 -29.5 -12.5t-12.5 -30.5v-128q0 -18 12.5 -30.5t29.5 -12.5h598q17 0 29.5 12.5t12.5 30.5v128
q0 18 -12.5 30.5t-29.5 12.5zM811 235h-598q-17 0 -29.5 -12.5t-12.5 -30.5v-128q0 -18 12.5 -30.5t29.5 -12.5h598q17 0 29.5 12.5t12.5 30.5v128q0 18 -12.5 30.5t-29.5 12.5zM661 256l150 -119v238zM811 299q-15 0 -22 -2v-86q7 2 22 2q52 0 90 -37.5t38 -90t-38 -90.5
t-90.5 -38t-90 38t-37.5 90q0 13 2 20l-73 57q-15 -41 -15 -77q0 -88 63 -150.5t151 -62.5t150.5 62.5t62.5 150.5t-62.5 151t-150.5 63z" />
    <glyph glyph-name="data_protection" unicode="&#xe625;" 
d="M811 747h-598q-17 0 -29.5 -12.5t-12.5 -30.5v-128q0 -18 12.5 -30.5t29.5 -12.5h598q17 0 29.5 12.5t12.5 30.5v128q0 18 -12.5 30.5t-29.5 12.5zM811 491h-598q-17 0 -29.5 -12.5t-12.5 -30.5v-128q0 -18 12.5 -30.5t29.5 -12.5h536q11 12 38 18t46.5 10.5t19.5 14.5
v128q0 18 -12.5 30.5t-29.5 12.5zM734 235h-521q-17 0 -29.5 -12.5t-12.5 -30.5v-128q0 -18 12.5 -30.5t29.5 -12.5h598q17 0 29.5 12.5t12.5 30.5v51q0 50 -35 85t-84 35zM981 363h-298q-18 0 -30.5 -12.5t-12.5 -30.5v-252q0 -41 34 -68l158 -117l158 117q34 27 34 68v252
q0 18 -12.5 30.5t-30.5 12.5z" />
    <glyph glyph-name="data_configuration" unicode="&#xe626;" 
d="M811 747h-598q-17 0 -29.5 -12.5t-12.5 -30.5v-128q0 -18 12.5 -30.5t29.5 -12.5h598q17 0 29.5 12.5t12.5 30.5v128q0 18 -12.5 30.5t-29.5 12.5zM811 491h-598q-17 0 -29.5 -12.5t-12.5 -30.5v-128q0 -18 12.5 -30.5t29.5 -12.5h598q17 0 29.5 12.5t12.5 30.5v128
q0 18 -12.5 30.5t-29.5 12.5zM811 235h-598q-17 0 -29.5 -12.5t-12.5 -30.5v-128q0 -18 12.5 -30.5t29.5 -12.5h598q17 0 29.5 12.5t12.5 30.5v128q0 18 -12.5 30.5t-29.5 12.5zM964 83q2 9 2 24q0 17 -2 23l49 36q8 8 5 15l-49 84q-4 7 -15 4l-56 -26q-18 15 -43 26l-6 62
q0 4 -3.5 7t-7.5 3h-96q-10 0 -10 -10l-7 -62q-24 -11 -42 -26l-56 26q-11 3 -15 -4l-49 -84q-2 -3 -1 -8t5 -7l50 -36q-3 -8 -3 -23q0 -17 3 -24l-50 -36q-7 -8 -4 -15l49 -83q4 -8 15 -4l56 25q18 -15 42 -25l7 -62q0 -5 3.5 -8t6.5 -3h96q11 0 11 11l6 62q25 10 43 25
l56 -25q11 -4 15 4l49 83q2 3 1 8t-6 7zM789.5 -4q-46.5 0 -79 32t-32.5 78.5t32.5 79t79 32.5t78.5 -32.5t32 -79t-32 -78.5t-78.5 -32zM789.5 235q-52.5 0 -90.5 -38t-38 -90.5t38 -90t90.5 -37.5t90 37.5t37.5 90t-37.5 90.5t-90 38zM789.5 43q-27.5 0 -46 18t-18.5 45.5
t18.5 46t46 18.5t45.5 -18.5t18 -46t-18 -45.5t-45.5 -18z" />
    <glyph glyph-name="data_recovery" unicode="&#xe627;" 
d="M811 747h-598q-17 0 -29.5 -12.5t-12.5 -30.5v-128q0 -18 12.5 -30.5t29.5 -12.5h598q17 0 29.5 12.5t12.5 30.5v128q0 18 -12.5 30.5t-29.5 12.5zM811 491h-598q-17 0 -29.5 -12.5t-12.5 -30.5v-128q0 -18 12.5 -30.5t29.5 -12.5h598q17 0 29.5 12.5t12.5 30.5v128
q0 18 -12.5 30.5t-29.5 12.5zM811 235h-598q-17 0 -29.5 -12.5t-12.5 -30.5v-128q0 -18 12.5 -30.5t29.5 -12.5h598q17 0 29.5 12.5t12.5 30.5v128q0 18 -12.5 30.5t-29.5 12.5zM747 299h128v-427h-128v427zM597 149h427v-128h-427v128z" />
    <glyph glyph-name="data_encryption" unicode="&#xe628;" 
d="M811 747h-598q-17 0 -29.5 -12.5t-12.5 -30.5v-128q0 -18 12.5 -30.5t29.5 -12.5h598q17 0 29.5 12.5t12.5 30.5v128q0 18 -12.5 30.5t-29.5 12.5zM811 491h-598q-17 0 -29.5 -12.5t-12.5 -30.5v-128q0 -18 12.5 -30.5t29.5 -12.5h536q11 12 38 18t46.5 10.5t19.5 14.5
v128q0 18 -12.5 30.5t-29.5 12.5zM734 235h-521q-17 0 -29.5 -12.5t-12.5 -30.5v-128q0 -18 12.5 -30.5t29.5 -12.5h598q17 0 29.5 12.5t12.5 30.5v51q0 50 -35 85t-84 35zM917 -85l-42 -43h-43l-43 43v226h128v-98l-21 -22l21 -21v-21l-21 -22l21 -21v-21zM1013 288
q-10 32 -42 38q-65 15 -118 15q-34 0 -117 -12q-32 -7 -43 -39q-10 -53 -10 -77q0 -26 10 -74q11 -32 43 -39q55 -13 117 -13q34 0 118 13q32 7 42.5 39t10.5 74q0 27 -11 75zM915 235h-121q-10 0 -17 7t-7 16v30q0 5 25.5 9t60 4t60 -4t25.5 -9v-30q-2 -10 -9 -16.5
t-17 -6.5zM832 105h21v-233h-21v233z" />
    <glyph glyph-name="database" unicode="&#xe629;" 
d="M811 747h-598q-17 0 -29.5 -12.5t-12.5 -30.5v-128q0 -18 12.5 -30.5t29.5 -12.5h598q17 0 29.5 12.5t12.5 30.5v128q0 18 -12.5 30.5t-29.5 12.5zM811 491h-598q-17 0 -29.5 -12.5t-12.5 -30.5v-128q0 -18 12.5 -30.5t29.5 -12.5h598q17 0 29.5 12.5t12.5 30.5v128
q0 18 -12.5 30.5t-29.5 12.5zM811 235h-598q-17 0 -29.5 -12.5t-12.5 -30.5v-128q0 -18 12.5 -30.5t29.5 -12.5h598q17 0 29.5 12.5t12.5 30.5v128q0 18 -12.5 30.5t-29.5 12.5z" />
    <glyph glyph-name="decision" unicode="&#xe62a;" 
d="M811 341zM725 341.5q0 -35.5 25 -60.5t60.5 -25t60.5 25t25 60.5t-25 60.5t-60.5 25t-60.5 -25t-25 -60.5zM213 341zM128 341.5q0 -35.5 25 -60.5t60.5 -25t60.5 25t25 60.5t-25 60.5t-60.5 25t-60.5 -25t-25 -60.5zM832 491q0 49 -27.5 84.5t-72.5 54.5t-102.5 26.5
t-117.5 2.5t-117.5 -19.5t-102.5 -36t-72.5 -51t-27.5 -61.5v-214q0 -132 93.5 -226t226.5 -94t226.5 94t93.5 226v214zM512 811q-92 0 -171 -46t-124.5 -124.5t-45.5 -171.5v-74l44 -13v109l416 134l175 -134v-109l45 13v74q1 62 -20.5 121.5t-62.5 109t-108 80.5t-148 31z
M465 265q0 39 11 67.5t27 45.5t32 31t27.5 32t11.5 41q0 10 -2 19.5t-8 20.5t-19.5 17.5t-32.5 6.5q-21 0 -35 -7.5t-19.5 -19t-7.5 -19t-2 -14.5h-81q0 10 1.5 22t10 32t23 35.5t43 27t67.5 11.5t68 -11.5t42.5 -27t21.5 -36t9.5 -31.5t1.5 -22q0 -28 -12 -52t-29 -41.5
t-34 -34.5t-28.5 -40.5t-11.5 -50.5h-75v-2zM459 160q0 5 1 10.5t5 14t14 14.5t24 6q20 0 31.5 -11t13.5 -19.5t2 -14.5q0 -9 -2.5 -17.5t-14 -17t-30.5 -8.5q-25 0 -34.5 14t-9.5 29z" />
    <glyph glyph-name="debt" unicode="&#xe62b;" 
d="M213.5 640q-44.5 0 -75.5 31t-31 75.5t31 75.5t75.5 31t75.5 -31t31 -75.5t-31 -75.5t-75.5 -31zM43 427v-171l64 -43l21 -298h171l21 298l64 43v171q0 70 -50 120t-120.5 50t-120.5 -50t-50 -120zM478 34q-11 -44 -20.5 -60.5t-30.5 -16.5q-13 0 -41 24l-7 5.5t-8 6.5
t-7.5 5.5t-9.5 6t-9 5t-10.5 5l-10.5 3.5t-12.5 2.5t-12.5 0.5v-42q3 0 7 -0.5t8 -2t6.5 -2t6.5 -3.5t6 -3.5t7 -4.5t6 -4.5t6.5 -5l5.5 -4.5q2 -1 7.5 -5.5t7.5 -6.5t7.5 -5.5t9 -5.5t8.5 -4.5t9 -3.5t9.5 -2t10.5 -1q19 0 34 7.5t23.5 16.5t16.5 27.5t11 28t9 31.5
q10 46 20.5 63.5t34.5 17.5v42q-20 0 -36 -7.5t-25.5 -18t-17.5 -28t-11.5 -30t-7.5 -31.5zM307 43h-94v-86h88zM768 128zM555 128q0 -88 62.5 -150.5t150.5 -62.5t150.5 62.5t62.5 150.5t-62.5 150.5t-150.5 62.5t-150.5 -62.5t-62.5 -150.5zM747 171q3 -7 6 -9
q1 -1 4.5 -3.5t6.5 -4.5q4 -3 17 -7q10 -4 28 -13q12 -6 21 -15q6 -6 15 -19q4 -8 4 -27q0 -9 -4 -26q-3 -13 -13 -19q-10 -10 -19 -13q-13 -6 -26 -6v-32h-25v32q-13 0 -26 6q-9 4 -21 13q-10 9 -15 23q-7 13 -7 32h47q0 -15 2 -19q5 -9 9 -13q2 -1 5 -3t6 -3q4 -2 12.5 -2
t12.5 2t9 6q1 1 3 4.5t3 4.5q2 4 2 10q0 9 -2 13q-3 7 -6 9q-7 6 -11 8q-8 5 -15 7q-11 4 -28 12q-12 7 -21 15q-6 7 -15 20q-4 8 -4 27q0 9 4 26q5 14 13 19q10 10 19 13q13 6 26 6v34h25v-34q17 -4 25.5 -8t19.5 -15q9 -13 13 -21q4 -18 4 -30h-47q0 19 -8 27q-6 9 -22 9
q-8 0 -12.5 -2t-8.5 -7q-6 0 -6 -6q0 -2 -1 -5.5t-1 -5.5q0 -8 2 -10z" />
    <glyph glyph-name="delete_database" unicode="&#xe62c;" 
d="M811 747h-598q-17 0 -29.5 -12.5t-12.5 -30.5v-128q0 -18 12.5 -30.5t29.5 -12.5h598q17 0 29.5 12.5t12.5 30.5v128q0 18 -12.5 30.5t-29.5 12.5zM811 491h-598q-17 0 -29.5 -12.5t-12.5 -30.5v-128q0 -18 12.5 -30.5t29.5 -12.5h598q17 0 29.5 12.5t12.5 30.5v128
q0 18 -12.5 30.5t-29.5 12.5zM811 235h-598q-17 0 -29.5 -12.5t-12.5 -30.5v-128q0 -18 12.5 -30.5t29.5 -12.5h598q17 0 29.5 12.5t12.5 30.5v128q0 18 -12.5 30.5t-29.5 12.5zM811 85zM597 85.5q0 -88.5 62.5 -151t151 -62.5t151 62.5t62.5 151t-62.5 151t-151 62.5
t-151 -62.5t-62.5 -151zM924 17l-45 -45l-181 181l45 45zM743 -28l-45 45l181 181l45 -45z" />
    <glyph glyph-name="department" unicode="&#xe62d;" 
d="M896 0h-768v704l384 149l384 -149v-704zM128 0h768v-43h-768v43zM427 149h170v-192h-170v192zM661 320h128v-107h-128v107zM448 320h128v-107h-128v107zM235 320h128v-107h-128v107zM661 149h128v-106h-128v106zM235 149h128v-106h-128v106zM661 491h128v-107h-128v107z
M448 491h128v-107h-128v107zM235 491h128v-107h-128v107zM661 661h128v-106h-128v106zM448 661h128v-106h-128v106zM235 661h128v-106h-128v106z" />
    <glyph glyph-name="diploma_2" unicode="&#xe62e;" 
d="M192 811h640v-854h-640v854zM640 107h60l-107 106l-60 -59l107 -107v60zM384 107h-60l107 106l60 -59l-107 -107v60zM320 619h384v-86h-384v86zM320 469h384v-42h-384v42zM512 341q-45 0 -76 -31t-31 -75.5t31 -75.5t76 -31t76 31t31 75.5t-31 75.5t-76 31zM512 171
q-27 0 -45.5 18t-18.5 45.5t18.5 46t45.5 18.5t45.5 -18.5t18.5 -46t-18.5 -45.5t-45.5 -18zM171 832v-896h682v896h-682zM811 43q-28 0 -46 -18.5t-18 -45.5h-470q0 27 -18 45.5t-46 18.5v682q28 0 46 18.5t18 45.5h470q0 -27 18 -45.5t46 -18.5v-682z" />
    <glyph glyph-name="diploma_1" unicode="&#xe62f;" 
d="M85 704h854v-640h-854v640zM640 171h60l-107 106l-60 -59l107 -107v60zM384 171h-60l107 106l60 -59l-107 -107v60zM235 576h554v-85h-554v85zM512 405q-45 0 -76 -31t-31 -75.5t31 -75.5t76 -31t76 31t31 75.5t-31 75.5t-76 31zM512 235q-27 0 -45.5 18t-18.5 45.5
t18.5 46t45.5 18.5t45.5 -18.5t18.5 -46t-18.5 -45.5t-45.5 -18zM64 725v-682h896v682h-896zM917 149q-27 0 -45.5 -18t-18.5 -46h-682q0 28 -18.5 46t-45.5 18v470q27 0 45.5 18t18.5 46h682q0 -28 18.5 -46t45.5 -18v-470z" />
    <glyph glyph-name="document" unicode="&#xe630;" 
d="M853 -64h-682v896h469l213 -213v-683zM821 597h-202v203zM341 448h363v-43h-363v43zM341 363h278v-43h-278v43zM341 277h363v-42h-363v42zM341 192h278v-43h-278v43z" />
    <glyph glyph-name="edit_image" unicode="&#xe631;" 
d="M661 21h-490q-36 0 -61 25t-25 61v554q0 36 25 61t61 25h682q36 0 61 -25t25 -61v-362q0 -116 -81 -197t-197 -81zM747 555zM683 554.5q0 -26.5 18.5 -45t45 -18.5t45.5 18.5t19 45t-19 45.5t-45.5 19t-45 -19t-18.5 -45.5zM427 555l-235 -342h469zM661 427l-170 -214
h341zM1018 275l-60 60q-7 6 -16.5 6t-17.5 -6l-28 -28l94 -94l28 28q6 6 6 16t-6 18zM586 -4l262 263l94 -94l-263 -262zM990 213l-47 -47l-93 93l46 47zM587 -4l-32 -124l123 32zM570 -64l-15 -64l64 15z" />
    <glyph glyph-name="end_call" unicode="&#xe632;" 
d="M928 538l-49 49q-62 60 -166.5 90.5t-210.5 27.5t-205 -34t-154 -84l-49 -49q-10 -10 -10 -24t10 -25l98 -96q10 -10 24.5 -10t24.5 10l109 104l-9 113q13 12 63.5 19t107.5 7t107.5 -7t63.5 -19l-7 -117l105 -100q9 -10 24 -10t25 10l98 96q11 11 11 25t-11 24zM512 32
l-171 203h342zM448 384h128v-160h-128v160z" />
    <glyph glyph-name="engineering" unicode="&#xe633;" 
d="M798 371l-248 47l-83 239l-81 -28l83 -236l-166 -192l64 -56l166 192l248 -47zM512 491q-45 0 -76 -31t-31 -76t31 -76t76 -31t76 31t31 76t-31 76t-76 31zM512 341q-18 0 -30.5 12.5t-12.5 30.5t12.5 30.5t30.5 12.5t30.5 -12.5t12.5 -30.5t-12.5 -30.5t-30.5 -12.5z
M868 320q7 32 7 64t-7 64l71 51q6 5 8.5 13.5t-2.5 16.5l-92 158q-11 18 -27 8l-79 -34q-47 41 -111 64l-9 88q-1 8 -7 13.5t-14 5.5h-184q-8 0 -14.5 -5.5t-6.5 -13.5l-13 -88q-64 -23 -111 -64l-79 37q-8 3 -16 0t-11 -11l-92 -158q-5 -8 -2.5 -16.5t8.5 -13.5l71 -51
q-7 -32 -7 -64t7 -64l-71 -51q-6 -5 -8.5 -13.5t2.5 -16.5l92 -158q11 -18 27 -8l79 34q47 -41 111 -64l9 -88q1 -8 7 -13.5t14 -5.5h184q8 0 14.5 5.5t6.5 13.5l8 88q65 23 111 64l79 -37q8 -3 16.5 -0.5t11.5 9.5l92 158q4 8 2 16.5t-9 13.5zM512 149q-98 0 -166.5 68.5
t-68.5 166.5t68.5 166.5t166.5 68.5t166.5 -68.5t68.5 -166.5t-68.5 -166.5t-166.5 -68.5z" />
    <glyph glyph-name="expired" unicode="&#xe634;" 
d="M363 533zM64 533v0q0 -123 87.5 -210.5t211 -87.5t211 87.5t87.5 210.5v0q0 124 -87.5 211.5t-211 87.5t-211 -87.5t-87.5 -211.5v0zM363 533zM128 533v0q0 -97 69 -165.5t166 -68.5t165.5 68.5t68.5 165.5v0q0 98 -68.5 166.5t-165.5 68.5t-166 -68.5t-69 -166.5v0z
M341 725h43v-192h-43v192zM483 449l-36 -36l-102 102l36 37zM363 533zM320 533v0q0 -17 12.5 -29.5t30 -12.5t30 12.5t12.5 29.5v0v0q0 18 -12.5 30.5t-30 12.5t-30 -12.5t-12.5 -30.5v0zM363 533zM341 533.5q0 -8.5 6.5 -15t15 -6.5t15 6.5t6.5 15t-6.5 15t-15 6.5
t-15 -6.5t-6.5 -15zM254 0l307 514q13 21 37 21t36 -21l307 -514q12 -21 0 -42.5t-36 -21.5h-615q-24 0 -36.5 21.5t0.5 42.5zM563 44.5q0 8.5 2 13.5q1 2 3.5 5t3.5 5q0 2 10 7q5 2 13 2q11 0 15 -2q9 -5 11 -7t6 -10q2 -5 2 -13.5t-2 -12.5q-1 -2 -3 -5.5t-3 -5.5
q-1 -1 -11 -6q-4 -2 -14.5 -2t-13.5 2q-1 1 -5 3t-5 3q-2 2 -7 11q-2 4 -2 12.5zM623 111h-49l-9 209h64z" />
    <glyph glyph-name="faq" unicode="&#xe635;" 
d="M320 43h491l128 -128v448q0 35 -25 60t-61 25h-533q-35 0 -60 -25t-25 -60v-235q0 -35 25 -60t60 -25zM614 196h-76l-15 -45h-47l79 214h40l79 -214h-47zM548 230h54l-26 81zM704 363h-491l-128 -128v490q0 36 25 61t61 25h533q35 0 60 -25t25 -61v-277q0 -35 -25 -60
t-60 -25zM542 593q0 -28 -10.5 -53t-28.5 -37l37 -27l-28 -26l-47 36q-2 0 -8 -1t-9 -1q-19 0 -38 7q-15 5 -30 21q-12 12 -19 34q-7 19 -7 45v8q0 26 7 45q7 23 19 34q17 17 30 22q16 6 38 6q19 0 38 -6q15 -6 30 -22q12 -11 19 -34q7 -19 7 -45v-6zM495 604q0 35 -13 51
q-11 17 -34 17q-24 0 -34 -17q-13 -19 -13 -51v-11q0 -13 4.5 -30t8.5 -21q7 -10 15 -13q13 -4 19 -4q24 0 34 17q13 19 13 53v9z" />
    <glyph glyph-name="film" unicode="&#xe636;" 
d="M960 704h-896v-640h896v640zM469 107v85h86v-85h-86zM640 107v85h85v-85h-85zM811 107v85h85v-85h-85zM299 107v85h85v-85h-85zM128 107v85h85v-85h-85zM469 576v85h86v-85h-86zM640 576v85h85v-85h-85zM811 576v85h85v-85h-85zM299 576v85h85v-85h-85zM128 576v85h85
v-85h-85z" />
    <glyph glyph-name="film_reel" unicode="&#xe637;" 
d="M917 64v320h-85v-320q0 -80 56 -136t136 -56v85q-45 0 -76 31t-31 76zM512 384zM107 384q0 -110 54 -203.5t147.5 -147.5t203.5 -54t203.5 54t147.5 147.5t54 203.5t-54 203.5t-147.5 147.5t-203.5 54t-203.5 -54t-147.5 -147.5t-54 -203.5zM512 384zM469 384
q0 -18 12.5 -30.5t30.5 -12.5t30.5 12.5t12.5 30.5t-12.5 30.5t-30.5 12.5t-30.5 -12.5t-12.5 -30.5zM512 597zM405 597q0 -44 31.5 -75t75.5 -31t75.5 31t31.5 75t-31.5 75.5t-75.5 31.5t-75.5 -31.5t-31.5 -75.5zM512 171zM405 171q0 -44 31.5 -75.5t75.5 -31.5t75.5 31.5
t31.5 75.5t-31.5 75t-75.5 31t-75.5 -31t-31.5 -75zM725 384zM619 384v0q0 -44 31 -75.5t75 -31.5t75.5 31.5t31.5 75.5v0v0q0 44 -31.5 75.5t-75.5 31.5t-75 -31.5t-31 -75.5v0zM299 384zM192 384v0q0 -44 31.5 -75.5t75.5 -31.5t75 31.5t31 75.5v0v0q0 44 -31 75.5
t-75 31.5t-75.5 -31.5t-31.5 -75.5v0z" />
    <glyph glyph-name="feedback" unicode="&#xe638;" 
d="M853 21h-682q-36 0 -61 25t-25 61v446q0 44 37 70l390 273l390 -273q37 -23 37 -70v-446q0 -36 -25 -61t-61 -25zM256 661h512v-469h-512v469zM512 606l-128 -167h256zM853 21h-682q-36 0 -61 25t-25 61v426l427 -277l427 277v-426q0 -36 -25 -61t-61 -25zM512 299l43 27
v143h-86v-143z" />
    <glyph glyph-name="fine_print" unicode="&#xe639;" 
d="M704 0h-597v811h405l192 -192v-619zM672 597h-181v182zM736 94l42 43l181 -181l-42 -43zM597 277zM363 277v0q0 -97 68.5 -165.5t165.5 -68.5t166 68.5t69 165.5v0q0 98 -69 166.5t-166 68.5t-165.5 -68.5t-68.5 -166.5v0zM597 277zM405 277.5q0 -79.5 56.5 -136
t136 -56.5t135.5 56.5t56 136t-56 135.5t-135.5 56t-136 -56t-56.5 -135.5zM786 45l42 42l132 -131l-43 -42zM640 235h-207q13 -52 53 -86h154v86zM433 320h207v85h-156q-37 -31 -51 -85zM429 469h-194v-42h155q18 25 39 42zM365 384h-130v-43h115q8 30 15 43zM341 277
q0 15 2 22h-108v-43h108q-2 6 -2 21zM350 213h-115v-42h130q-7 12 -15 42z" />
    <glyph glyph-name="flow_chart" unicode="&#xe63a;" 
d="M747 128h85v299h-277v192h-86v-192h-277v-299h85v213h192v-213h86v213h192v-213zM363 768h298v-213h-298v213zM683 213h213v-213h-213v213zM128 213h213v-213h-213v213zM405 213h214v-213h-214v213z" />
    <glyph glyph-name="folder" unicode="&#xe63b;" 
d="M853 640h-384l-85 85h-213q-36 0 -61 -25t-25 -60v-171h854v86q0 35 -25 60t-61 25zM853 640h-682q-36 0 -61 -25t-25 -60v-427q0 -35 25 -60t61 -25h682q36 0 61 25t25 60v427q0 35 -25 60t-61 25z" />
    <glyph glyph-name="genealogy" unicode="&#xe63c;" 
d="M853 704v43h-192v-107h-341v-235h-149v-42h149v-235h341v-107h192v43h-149v171h149v42h-192v-106h-298v426h298v-106h192v42h-149v171h149zM85 469h171v-170h-171v170zM768 597h171v-170h-171v170zM768 811h171v-171h-171v171zM427 704h170v-171h-170v171zM427 235h170
v-171h-170v171zM768 128h171v-171h-171v171zM768 341h171v-170h-171v170z" />
    <glyph glyph-name="globe" unicode="&#xe63d;" 
d="M512 811q-115 0 -213.5 -57.5t-156 -156t-57.5 -213.5t57.5 -213.5t156 -156t213.5 -57.5t213.5 57.5t156 156t57.5 213.5t-57.5 213.5t-156 156t-213.5 57.5zM960 384q0 -186 -131.5 -317t-316.5 -131t-316.5 131t-131.5 317q0 187 130.5 317.5t317.5 130.5
t317.5 -130.5t130.5 -317.5zM508 177q0 11 -13 17q-7 2 -20 5t-20.5 5.5t-18 8t-18.5 13.5q-2 5 -4 14t-4 14q-4 4 -11.5 7t-19.5 6t-14 4h-90q-3 1 -6.5 3.5t-7.5 7.5l-6 7.5t-6.5 9.5t-5.5 8q0 13 -8 13q-5 2 -14 0t-14 0q-4 4 -4 13q0 19 17 36q8 4 13 3t14 -4t13 -3
q5 0 9 -4q17 -6 17 -37v-8q0 -5 8 -5q3 12 5 34.5t4 34.5q0 19 15.5 36.5t33.5 25.5q4 2 11 -0.5t12 0.5q19 5 37.5 14t34 25.5t10.5 32.5q-7 26 -27 43.5t-46 14.5q-4 -2 -10.5 -6.5t-10.5 -6.5q-4 -3 -16 -13t-22 -16.5t-16 -6.5q-16 3 -19.5 21t2.5 28q5 18 29.5 45.5
t43.5 20.5l17 -17q8 -4 36 -4q9 0 13 4t4 8q0 15 -21 37q-11 10 -36 23q-34 10 -80 -1t-72 -35q-42 -40 -81 -130q-15 -51 -21 -94q-3 -15 -4 -22t0.5 -18.5t7.5 -21.5q17 -37 68 -73q6 -4 34 -13t39 -23q4 -6 6.5 -14.5t2.5 -14t-0.5 -17.5t-0.5 -16q0 -12 4 -23.5
t13 -27.5t11 -21q2 -7 6.5 -23t6.5 -22q0 -2 2 -18t2 -18q9 -4 25 -12.5t29 -14.5t27 -10q3 0 12.5 14.5t9.5 17.5q4 5 16.5 20.5t19.5 20.5q17 8 28 17q5 5 17 41q5 29 2 40zM516 591l17 8q7 5 20.5 16.5t20.5 15.5q13 9 36 32q18 13 28 41l4.5 8t5 10.5t3.5 11.5t0 11
q-2 3 -9 6.5t-16 6t-12 4.5q-54 12 -102 12q-31 0 -36 -17q-2 -8 0.5 -12.5t6 -5.5t12 -2t13.5 -3q4 -36 4 -41q2 -11 -3.5 -29.5t-5.5 -27.5q0 -37 9 -45h4zM892 277q2 5 4 16.5t4 15.5q5 22 5 66q0 77 -18 131q-7 10 -17 40q-13 38 -40 62q-3 4 -9 14l-10.5 17.5t-12 17.5
t-14.5 14t-16.5 6.5t-18.5 -3.5q-6 -2 -11.5 -7t-11.5 -13l-9 -12q-24 -36 -28 -40q-11 -11 -4 -17q0 -5 8 -5q5 -2 11 -4t11 -4q3 0 5 -3t-1 -6q0 -4 -4 -4q-12 -13 -35 -33.5t-31.5 -28.5t-8.5 -17q0 -2 2 -4t2 -5q0 -1 -1 -2.5t-3.5 -2.5t-3.5 -3q-17 -9 -24 -13
q-2 -4 -2 -16t-2 -16q-2 -10 -6 -19.5t-11.5 -23.5t-10.5 -19q-4 -6 -10.5 -20t-10.5 -20q0 -5 -0.5 -12.5t-0.5 -12t1 -10.5t4 -10q12 -18 48 -20.5t46 -7.5q3 -1 8 -3t9 -4t7 -6q5 -5 8.5 -14t5 -20t3.5 -15q9 -38 17 -53q2 -12 8.5 -34.5t8.5 -27.5q71 56 102 111
q15 13 27 31.5t17 31.5t14 37z" />
    <glyph glyph-name="grid" unicode="&#xe63e;" 
d="M149 747v-726h726v726h-726zM832 576h-128v128h128v-128zM533 576v128h128v-128h-128zM661 533v-128h-128v128h128zM491 576h-128v128h128v-128zM491 533v-128h-128v128h128zM320 405h-128v128h128v-128zM320 363v-128h-128v128h128zM363 363h128v-128h-128v128zM491 192
v-128h-128v128h128zM533 192h128v-128h-128v128zM533 235v128h128v-128h-128zM704 363h128v-128h-128v128zM704 405v128h128v-128h-128zM320 704v-128h-128v128h128zM192 192h128v-128h-128v128zM704 64v128h128v-128h-128z" />
    <glyph glyph-name="high_priority" unicode="&#xe640;" 
d="M452 -60l-384 384q-25 26 -25 61t25 61l384 384q26 25 61 25t61 -25l384 -384q25 -26 25 -61t-25 -61l-384 -384q-26 -25 -62 -25t-60 25zM461 198.5q0 6.5 4 19.5q2 6 11 15q7 7 17 10q13 4 21.5 4t20.5 -4q10 -3 18 -10q8 -9 10 -15q4 -13 4 -19.5t-4 -19.5
q-2 -6 -10 -15q-8 -7 -18 -10q-12 -5 -20.5 -5t-21.5 5q-2 0 -17 10q-9 9 -11 15q-4 13 -4 19.5zM550 297h-76l-11 322h98z" />
    <glyph glyph-name="home" unicode="&#xe641;" 
d="M896 64h-768v341l384 363l384 -363v-341zM832 448l-107 107v149h107v-256zM128 64h768v-107h-768v107zM512 804l-427 -397l43 -46l384 356l384 -356l43 46zM384 299h256v-342h-256v342zM448 533h128v-128h-128v128zM586.5 139q-10.5 0 -10.5 -11v-43q0 -10 10.5 -10
t10.5 10v43q0 11 -10.5 11z" />
    <glyph glyph-name="idea" unicode="&#xe642;" 
d="M512 427zM85 427q0 -116 57.5 -214.5t155.5 -155.5t214 -57t214 57t155.5 155.5t57.5 214.5t-57.5 214t-155.5 155t-214 57t-214 -57t-155.5 -155t-57.5 -214zM789 427q0 81 -41.5 147.5t-113.5 101.5t-154 26q-96 -11 -165 -80.5t-78 -164.5q-8 -72 18.5 -135.5
t79.5 -106.5q49 -42 49 -102v-6h256v2q0 62 47 102q48 40 75 96t27 120zM653 465l-64 43q-12 8 -24 0l-53 -34l-51 34q-12 8 -24 0l-64 -43q-8 -8 -8 -15q0 -13 4 -17l81 -100v-226h43v234q0 5 -4 13l-71 88l32 21l51 -34q12 -8 24 0l51 34l32 -21l-70 -88q-5 -8 -5 -13
v-234h43v226l81 100q8 8 4 17q-4 13 -8 15zM512 -43zM448 -42.5q0 -26.5 19 -45.5t45 -19t45 19t19 45.5t-19 45t-45 18.5t-45 -18.5t-19 -45zM555 -64h-86q-35 0 -60 25t-25 60v107h256v-107q0 -35 -25 -60t-60 -25zM640 21l-247 -34q10 -25 34 -38l200 28q13 19 13 44z
M384 70v-42l256 36v43z" />
    <glyph glyph-name="image_file" unicode="&#xe643;" 
d="M853 -64h-682v896h469l213 -213v-683zM821 597h-202v203zM448 405l-149 -213h298zM597 333l-106 -141h213zM672 373zM640 373.5q0 -13.5 9.5 -23t22.5 -9.5t22.5 9.5t9.5 23t-9.5 22.5t-22.5 9t-22.5 -9t-9.5 -22.5z" />
    <glyph glyph-name="import" unicode="&#xe644;" 
d="M149 43v682q0 36 25 61t61 25h512q35 0 60 -25t25 -61v-682q0 -36 -25 -61t-60 -25h-512q-36 0 -61 25t-25 61zM284 384l228 192v-384zM405 448h491v-128h-491v128z" />
    <glyph glyph-name="icons8_cup" unicode="&#xe645;" 
d="M853 597h-682l81 -603q1 -16 13.5 -26.5t28.5 -10.5h438q16 0 27.5 10.5t14.5 26.5zM896 597h-768v64q0 36 25 61t60 25h598q35 0 60 -25t25 -61v-64zM794 683h-564l37 100q10 28 40 28h410q13 0 24.5 -8t15.5 -20zM597 288q43 39 43 96q0 53 -37.5 90.5t-90.5 37.5
t-90.5 -37.5t-37.5 -90.5q0 -57 43 -96q-43 -39 -43 -96q0 -53 37.5 -90.5t90.5 -37.5t90.5 37.5t37.5 90.5q0 57 -43 96zM512 128q-27 0 -45.5 18.5t-18.5 45.5t18.5 45.5t45.5 18.5t45.5 -18.5t18.5 -45.5t-18.5 -45.5t-45.5 -18.5zM512 320q-27 0 -45.5 18.5t-18.5 45.5
t18.5 45.5t45.5 18.5t45.5 -18.5t18.5 -45.5t-18.5 -45.5t-45.5 -18.5z" />
    <glyph glyph-name="in_transit" unicode="&#xe646;" 
d="M939 128h-299v427q0 17 12.5 29.5t30.5 12.5h170q21 0 34 -17l128 -164q9 -11 9 -26v-177q0 -35 -25 -60t-60 -25zM171 128h469v491q0 35 -25 60t-60 25h-470v-491q0 -35 25 -60t61 -25zM0 704h213v-43h-213v43zM0 597h213v-42h-213v42zM0 491h213v-43h-213v43zM0 384
h213v-43h-213v43zM85 661h342v-42h-342v42zM85 555h256v-43h-256v43zM85 448h171v-43h-171v43zM85 341h86v-42h-86v42zM832 128zM725 128q0 -44 31.5 -75.5t75.5 -31.5t75.5 31.5t31.5 75.5t-31.5 75.5t-75.5 31.5t-75.5 -31.5t-31.5 -75.5zM341 128zM235 128v0
q0 -44 31 -75.5t75 -31.5t75.5 31.5t31.5 75.5v0v0q0 44 -31.5 75.5t-75.5 31.5t-75 -31.5t-31 -75.5v0zM832 128zM779 128q0 -22 15.5 -37.5t37.5 -15.5t37.5 15.5t15.5 37.5t-15.5 37.5t-37.5 15.5t-37.5 -15.5t-15.5 -37.5zM341 128zM288 128q0 -22 15.5 -37.5
t37.5 -15.5t38 15.5t16 37.5t-16 37.5t-38 15.5t-37.5 -15.5t-15.5 -37.5zM939 341h-77q-9 0 -15 7l-30 30q-6 6 -15 6h-77q-9 0 -15 6t-6 15v128q0 10 6 16t15 6h118q11 0 17 -9l96 -115q4 -9 4 -13v-55q0 -10 -6 -16t-15 -6z" />
    <glyph glyph-name="info" unicode="&#xe647;" 
d="M512 384zM64 384q0 -185 131.5 -316.5t316.5 -131.5t316.5 131.5t131.5 316.5t-131.5 316.5t-316.5 131.5t-316.5 -131.5t-131.5 -316.5zM469 427h86v-235h-86v235zM512 544zM459 544q0 -22 15.5 -37.5t37.5 -15.5t37.5 15.5t15.5 37.5t-15.5 37.5t-37.5 15.5
t-37.5 -15.5t-15.5 -37.5z" />
    <glyph glyph-name="invite" unicode="&#xe648;" 
d="M853 21h-682q-36 0 -61 25t-25 61v446q0 44 37 70l390 273l390 -273q37 -23 37 -70v-446q0 -36 -25 -61t-61 -25zM256 661h512v-469h-512v469zM853 21h-682q-36 0 -61 25t-25 61v426l427 -277l427 277v-426q0 -36 -25 -61t-61 -25zM469 597h86v-256h-86v256zM384 512h256
v-85h-256v85z" />
    <glyph glyph-name="ipad" unicode="&#xe649;" 
d="M171 21v726q0 35 25 60t60 25h512q35 0 60 -25t25 -60v-726q0 -35 -25 -60t-60 -25h-512q-35 0 -60 25t-25 60zM768 768h-512q-10 0 -15.5 -6t-5.5 -15v-662q0 -9 5.5 -15t15.5 -6h512q10 0 15.5 6t5.5 15v662q0 9 -5.5 15t-15.5 6zM512 0zM480 0q0 -13 9.5 -22.5
t22.5 -9.5t22.5 9.5t9.5 22.5t-9.5 22.5t-22.5 9.5t-22.5 -9.5t-9.5 -22.5z" />
    <glyph glyph-name="iphone" unicode="&#xe64a;" 
d="M256 43v682q0 36 25 61t60 25h342q35 0 60 -25t25 -61v-682q0 -36 -25 -61t-60 -25h-342q-35 0 -60 25t-25 61zM683 747h-342q-9 0 -15 -6t-6 -16v-618q0 -10 6 -16t15 -6h342q9 0 15 6t6 16v618q0 10 -6 16t-15 6zM512 21zM480 21.5q0 -13.5 9.5 -23t22.5 -9.5t22.5 9.5
t9.5 23t-9.5 22.5t-22.5 9t-22.5 -9t-9.5 -22.5z" />
    <glyph glyph-name="kindle" unicode="&#xe64b;" 
d="M171 21v726q0 35 25 60t60 25h512q35 0 60 -25t25 -60v-726q0 -35 -25 -60t-60 -25h-512q-35 0 -60 25t-25 60zM747 768h-470q-9 0 -15 -6t-6 -15v-619q0 -10 6 -15.5t15 -5.5h470q9 0 15 5.5t6 15.5v619q0 9 -6 15t-15 6zM427 43h170v-43h-170v43zM341 661h342v-64h-342
v64zM341 512h342v-43h-342v43zM341 427h256v-43h-256v43zM341 341h342v-42h-342v42zM341 256h256v-43h-256v43z" />
    <glyph glyph-name="landscape" unicode="&#xe64c;" 
d="M875 767l149 -150l-149 -149l-150 149zM768 725h213v-213h-213v213zM875 619zM811 618.5q0 -26.5 18.5 -45t45 -18.5t45.5 18.5t19 45t-19 45.5t-45.5 19t-45 -19t-18.5 -45.5zM352 512l-352 -512h704zM717 384l-307 -384h614z" />
    <glyph glyph-name="key" unicode="&#xe64d;" 
d="M640 21l-85 -85h-86l-85 85v427h256v-171l-43 -42l43 -43v-43l-43 -42l43 -43v-43zM811 730q-8 28 -29.5 48t-49.5 28q-123 26 -220 26t-220 -26q-28 -8 -49.5 -28t-29.5 -48q-21 -73 -21 -143.5t21 -142.5q8 -29 29 -49t50 -26q111 -28 220 -28q97 0 220 26
q28 6 49.5 26.5t29.5 48.5q21 72 21 143q0 72 -21 145zM619 619h-214q-17 0 -29.5 12.5t-12.5 29.5v43q0 9 42.5 15t106.5 6t106.5 -6t42.5 -15v-43q0 -17 -12.5 -29.5t-29.5 -12.5zM491 341h42v-405h-42v405z" />
    <glyph glyph-name="leave" unicode="&#xe64e;" 
d="M107 85v512h810v-512q0 -35 -25 -60t-60 -25h-640q-35 0 -60 25t-25 60zM917 683v-128h-810v128q0 35 25 60t60 25h640q35 0 60 -25t25 -60zM704 683zM640 682.5q0 -26.5 19 -45t45 -18.5t45 18.5t19 45t-19 45.5t-45 19t-45 -19t-19 -45.5zM320 683zM256 682.5
q0 -26.5 19 -45t45 -18.5t45 18.5t19 45t-19 45.5t-45 19t-45 -19t-19 -45.5zM704 832q-18 0 -30.5 -12.5t-12.5 -30.5v-106q0 -18 12.5 -30.5t30.5 -12.5t30.5 12.5t12.5 30.5v106q0 18 -12.5 30.5t-30.5 12.5zM320 832q-18 0 -30.5 -12.5t-12.5 -30.5v-106
q0 -18 12.5 -30.5t30.5 -12.5t30.5 12.5t12.5 30.5v106q0 18 -12.5 30.5t-30.5 12.5zM474 143q0 11 2 15q4 8 8 11q2 0 5 3t6 3q4 2 15 2t15 -2l13 -6q4 -3 8 -11q2 -4 2 -15t-2 -15q-4 -9 -8 -11q-2 0 -4 -2t-4 -3t-5 -1t-6.5 -2t-6.5 -2q-11 0 -15 2q-8 4 -11 6
q-4 2 -8 11q-4 13 -4 17zM540 235h-56l-8 234h70z" />
    <glyph glyph-name="like_placeholder" unicode="&#xe64f;" 
d="M725 704q-66 0 -122.5 -31t-90.5 -84q-34 53 -90.5 84t-122.5 31q-106 0 -181 -75t-75 -181q0 -52 25.5 -108t67 -104.5t91.5 -95t100 -83t91.5 -64t67.5 -42.5l26 -15q10 5 27 15t65.5 41.5t93 64.5t98.5 82t93 96t65.5 104t26.5 109q0 106 -75 181t-181 75z" />
    <glyph glyph-name="library" unicode="&#xe650;" 
d="M21 85h982v-42h-982v42zM533 512h86v-341h-86v341zM661 512h86v-341h-86v341zM789 512h86v-341h-86v341zM405 512h86v-341h-86v341zM277 512h86v-341h-86v341zM149 512h86v-341h-86v341zM917 555h-810v64l405 192l405 -192v-64zM107 171h810v-43h-810v43zM533 555h86v-43
h-86v43zM661 555h86v-43h-86v43zM789 555h86v-43h-86v43zM405 555h86v-43h-86v43zM277 555h86v-43h-86v43zM149 555h86v-43h-86v43zM64 128h896v-43h-896v43zM512 661zM469 661.5q0 -17.5 12.5 -30t30.5 -12.5t30.5 12.5t12.5 30t-12.5 30t-30.5 12.5t-30.5 -12.5t-12.5 -30
z" />
    <glyph glyph-name="like" unicode="&#xe651;" 
d="M725 704q-66 0 -122.5 -31t-90.5 -84q-34 53 -90.5 84t-122.5 31q-106 0 -181 -75t-75 -181q0 -52 25.5 -108t67 -104.5t91.5 -95t100 -83t91.5 -64t67.5 -42.5l26 -15q10 5 27 15t65.5 41.5t93 64.5t98.5 82t93 96t65.5 104t26.5 109q0 106 -75 181t-181 75z" />
    <glyph glyph-name="link" unicode="&#xe652;" 
d="M811 619h-64q-88 0 -151 -63t-63 -151t63 -150.5t151 -62.5h64q88 0 150.5 62.5t62.5 150.5t-62.5 151t-150.5 63zM811 277h-64q-53 0 -90.5 38t-37.5 90.5t37.5 90t90.5 37.5h64q52 0 90 -37.5t38 -90t-38 -90.5t-90 -38zM277 619h-64q-88 0 -150.5 -63t-62.5 -151
t62.5 -150.5t150.5 -62.5h64q88 0 151 62.5t63 150.5t-63 151t-151 63zM277 277h-64q-52 0 -90 38t-38 90.5t38 90t90 37.5h64q53 0 90.5 -37.5t37.5 -90t-37.5 -90.5t-90.5 -38zM704 448h-384q-18 0 -30.5 -12.5t-12.5 -30t12.5 -30t30.5 -12.5h384q18 0 30.5 12.5t12.5 30
t-12.5 30t-30.5 12.5z" />
    <glyph glyph-name="lock_landscape" unicode="&#xe653;" 
d="M149 683h726q35 0 60 -25t25 -61v-426q0 -36 -25 -61t-60 -25h-726q-35 0 -60 25t-25 61v426q0 36 25 61t60 25zM896 171v426q0 10 -6 16t-15 6h-726q-9 0 -15 -6t-6 -16v-426q0 -10 6 -16t15 -6h726q9 0 15 6t6 16zM619 235h-214q-9 0 -15 5.5t-6 15.5v128q0 10 6 15.5
t15 5.5h214q9 0 15 -5.5t6 -15.5v-128q0 -10 -6 -15.5t-15 -5.5zM512 533q-35 0 -60 -25t-25 -60v-64h42v64q0 18 12.5 30.5t30.5 12.5t30.5 -12.5t12.5 -30.5v-64h42v64q0 35 -25 60t-60 25z" />
    <glyph glyph-name="lock_portrait" unicode="&#xe654;" 
d="M213 21v726q0 35 25 60t61 25h426q36 0 61 -25t25 -60v-726q0 -35 -25 -60t-61 -25h-426q-36 0 -61 25t-25 60zM725 768h-426q-10 0 -16 -6t-6 -15v-726q0 -9 6 -15t16 -6h426q10 0 16 6t6 15v726q0 9 -6 15t-16 6zM619 256h-214q-9 0 -15 6t-6 15v128q0 10 6 16t15 6
h214q9 0 15 -6t6 -16v-128q0 -9 -6 -15t-15 -6zM512 555q-35 0 -60 -25t-25 -61v-64h42v64q0 18 12.5 30.5t30.5 12.5t30.5 -12.5t12.5 -30.5v-64h42v64q0 36 -25 61t-60 25z" />
    <glyph glyph-name="list" unicode="&#xe655;" 
d="M128 427h85v-86h-85v86zM128 597h85v-85h-85v85zM128 256h85v-85h-85v85zM128 768h85v-85h-85v85zM128 85h85v-85h-85v85zM299 427h597v-86h-597v86zM299 597h597v-85h-597v85zM299 256h597v-85h-597v85zM299 768h597v-85h-597v85zM299 85h597v-85h-597v85z" />
    <glyph glyph-name="lock" unicode="&#xe656;" 
d="M512 811q-88 0 -150.5 -63t-62.5 -151v-85h85v85q0 53 37.5 90.5t90.5 37.5t90.5 -37.5t37.5 -90.5v-85h85v85q0 88 -62.5 151t-150.5 63zM768 -43h-512q-35 0 -60 25t-25 61v384q0 35 25 60t60 25h512q35 0 60 -25t25 -60v-384q0 -36 -25 -61t-60 -25zM512 235z
M448 234.5q0 -26.5 19 -45t45 -18.5t45 18.5t19 45t-19 45.5t-45 19t-45 -19t-19 -45.5z" />
    <glyph glyph-name="manager" unicode="&#xe657;" 
d="M512 107l-107 128v128h214v-128zM704 491zM661 490.5q0 -17.5 12.5 -30t30.5 -12.5t30.5 12.5t12.5 30t-12.5 30t-30.5 12.5t-30.5 -12.5t-12.5 -30zM320 491zM277 490.5q0 -17.5 12.5 -30t30.5 -12.5t30.5 12.5t12.5 30t-12.5 30t-30.5 12.5t-30.5 -12.5t-12.5 -30z
M704 619q0 38 -28.5 63t-71 33t-92.5 4.5t-92.5 -17t-71 -36t-28.5 -47.5v-150q0 -80 56 -136t136 -56t136 56t56 136v150zM512 811q-96 0 -154.5 -67.5t-58.5 -167.5v-49l42 -36v106l256 86l86 -86v-106l42 36v49q0 35 -5 63.5t-18.5 56t-39.5 46t-65 26.5l-21 43h-64z
M597 491zM576 490.5q0 -8.5 6.5 -15t15 -6.5t15 6.5t6.5 15t-6.5 15t-15 6.5t-15 -6.5t-6.5 -15zM427 491zM405 490.5q0 -8.5 6.5 -15t15 -6.5t15 6.5t6.5 15t-6.5 15t-15 6.5t-15 -6.5t-6.5 -15zM619 235l-107 -22l-107 22q-5 -1 -13 -3t-32.5 -11t-47 -21.5t-49.5 -35
t-46.5 -49.5t-32.5 -68.5t-13 -89.5h682q0 166 -147 245q-47 25 -87 33zM491 149l-22 -192h86l-22 192l22 22l-43 42l-43 -42z" />
    <glyph glyph-name="mind_map" unicode="&#xe658;" 
d="M841 405l-18 86l-268 -56v290h-86v-262l-296 192l-47 -73l324 -209l-249 -326l68 -51l241 315l179 -270l73 46l-180 267zM512 384zM363 384q0 -62 43.5 -105.5t105.5 -43.5t105.5 43.5t43.5 105.5t-43.5 105.5t-105.5 43.5t-105.5 -43.5t-43.5 -105.5zM512 725zM405 725
q0 -44 31.5 -75t75.5 -31t75.5 31t31.5 75t-31.5 75.5t-75.5 31.5t-75.5 -31.5t-31.5 -75.5zM832 448zM725 448q0 -44 31.5 -75.5t75.5 -31.5t75.5 31.5t31.5 75.5t-31.5 75.5t-75.5 31.5t-75.5 -31.5t-31.5 -75.5zM149 619zM43 619v0q0 -45 31 -76t75 -31t75.5 31t31.5 76
v0v0q0 44 -31.5 75t-75.5 31t-75 -31t-31 -75v0zM235 21zM128 21v0q0 -44 31.5 -75t75.5 -31t75 31t31 75v0v0q0 45 -31 76t-75 31t-75.5 -31t-31.5 -76v0zM725 64zM619 64v0q0 -44 31 -75.5t75 -31.5t75.5 31.5t31.5 75.5v0v0q0 44 -31.5 75.5t-75.5 31.5t-75 -31.5
t-31 -75.5v0z" />
    <glyph glyph-name="mms" unicode="&#xe659;" 
d="M789 64h-554l-128 -128v725q0 53 37.5 90.5t90.5 37.5h554q53 0 90.5 -37.5t37.5 -90.5v-469q0 -53 -37.5 -90.5t-90.5 -37.5zM427 544l-214 -309h427zM725 576zM661 576q0 -26 19 -45t45.5 -19t45 19t18.5 45t-18.5 45t-45 19t-45.5 -19t-19 -45zM640 448l-171 -213h342
z" />
    <glyph glyph-name="multiple_cameras" unicode="&#xe65a;" 
d="M896 21h-640q-35 0 -60 25t-25 61v426q0 36 25 61t60 25h640q35 0 60 -25t25 -61v-426q0 -36 -25 -61t-60 -25zM768 128h-640q-35 0 -60 25t-25 60v427q0 35 25 60t60 25h640q35 0 60 -25t25 -60v-427q0 -35 -25 -60t-60 -25zM555 427zM341 426.5q0 -88.5 62.5 -151
t151 -62.5t151 62.5t62.5 151t-62.5 151t-151 62.5t-151 -62.5t-62.5 -151zM555 427zM405 426.5q0 -61.5 44 -105.5t105.5 -44t105.5 44t44 105.5t-44 105.5t-105.5 44t-105.5 -44t-44 -105.5zM634 476q-33 36 -79 36q-50 0 -79 -36q-6 -7 -5.5 -15t7.5 -15q7 -6 15 -5.5
t15 7.5q19 21 48 21t48 -21q6 -6 14.5 -6t15.5 6q6 5 6 13t-6 15zM128 640h128v-64h-128v64z" />
    <glyph glyph-name="multiple_devices" unicode="&#xe65b;" 
d="M85 299v426q0 36 25 61t61 25h597q35 0 60 -25t25 -61v-426q0 -36 -25 -61t-60 -25h-597q-36 0 -61 25t-25 61zM768 747h-597q-10 0 -16 -6t-6 -16v-426q0 -10 6 -16t16 -6h597q10 0 15.5 6t5.5 16v426q0 10 -5.5 16t-15.5 6zM811 192h-683q-35 0 -60 25t-25 60h853
q0 -35 -25 -60t-60 -25zM512 43v512q0 35 25 60t60 25h256q36 0 61 -25t25 -60v-512q0 -36 -25 -61t-61 -25h-256q-35 0 -60 25t-25 61zM853 576h-256q-9 0 -15 -6t-6 -15v-470q0 -9 6 -15t15 -6h256q10 0 16 6t6 15v470q0 9 -6 15t-16 6zM725 11zM693 10.5
q0 -13.5 9.5 -22.5t23 -9t22.5 9t9 22.5t-9 23t-22.5 9.5t-23 -9.5t-9.5 -23z" />
    <glyph glyph-name="multiple_inputs" unicode="&#xe65c;" 
d="M853 149v-106h-682v106h-86v-106q0 -36 25 -61t61 -25h682q36 0 61 25t25 61v106h-86zM512 397l-149 179h298zM469 811h86v-299h-86v299zM672 322l-15 -23l75 -41l13 26q28 53 44.5 78t29.5 33q13 7 38 8.5t82 1.5v86q-47 0 -71.5 -1t-51.5 -8t-40 -15t-32.5 -30.5
t-33.5 -46t-38 -68.5zM819 235l-192 -86l-30 214zM352 322l13 -25l-75 -41l-13 26q-28 52 -44.5 77.5t-29.5 33.5q-8 6 -25.5 8.5t-35 3t-57.5 0.5v86q47 0 71.5 -1t51.5 -8t40 -15t32.5 -30.5t33.5 -46t38 -68.5zM427 363l-30 -214l-192 86z" />
    <glyph glyph-name="multiple_smartphones" unicode="&#xe65d;" 
d="M85 235v490q0 36 25 61t61 25h256q35 0 60 -25t25 -61v-490q0 -36 -25 -61t-60 -25h-256q-36 0 -61 25t-25 61zM427 747h-256q-10 0 -16 -6t-6 -16v-448q0 -9 6 -15t16 -6h256q9 0 15 6t6 15v448q0 10 -6 16t-15 6zM299 203zM267 202.5q0 -13.5 9 -22.5t22.5 -9t23 9
t9.5 22.5t-9.5 23t-23 9.5t-22.5 -9.5t-9 -23zM299 128v491q0 35 25 60t60 25h256q35 0 60 -25t25 -60v-491q0 -35 -25 -60t-60 -25h-256q-35 0 -60 25t-25 60zM640 640h-256q-10 0 -15.5 -6t-5.5 -15v-448q0 -10 5.5 -16t15.5 -6h256q10 0 15.5 6t5.5 16v448q0 9 -5.5 15
t-15.5 6zM512 96zM480 96q0 -13 9.5 -22.5t22.5 -9.5t22.5 9.5t9.5 22.5t-9.5 22.5t-22.5 9.5t-22.5 -9.5t-9.5 -22.5zM512 43v469q0 35 25 60t60 25h256q36 0 61 -25t25 -60v-469q0 -36 -25 -61t-61 -25h-256q-35 0 -60 25t-25 61zM853 533h-256q-9 0 -15 -5.5t-6 -15.5
v-427q0 -9 6 -15t15 -6h256q10 0 16 6t6 15v427q0 10 -6 15.5t-16 5.5zM725 11zM693 10.5q0 -13.5 9.5 -22.5t23 -9t22.5 9t9 22.5t-9 23t-22.5 9.5t-23 -9.5t-9.5 -23z" />
    <glyph glyph-name="ok" unicode="&#xe65e;" 
d="M512 384zM64 384q0 -185 131.5 -316.5t316.5 -131.5t316.5 131.5t131.5 316.5t-131.5 316.5t-316.5 131.5t-316.5 -131.5t-131.5 -316.5zM738 585l-290 -291l-119 120l-60 -60l179 -179l350 350z" />
    <glyph glyph-name="opened_folder" unicode="&#xe65f;" 
d="M811 640h-342l-85 85h-213q-36 0 -61 -25t-25 -60v-512q0 -35 25 -60t61 -25h661q27 0 45.5 18t18.5 46v448q0 35 -25 60t-60 25zM900 512h-574q-30 0 -54 -20t-29 -50l-72 -399h676q31 0 54.5 20t28.5 50l53 299q8 38 -17.5 69t-65.5 31z" />
    <glyph glyph-name="old_time_camera" unicode="&#xe660;" 
d="M299 619h-128v38q0 11 7 18.5t18 7.5h77q11 0 18.5 -7.5t7.5 -18.5v-38zM853 43h-682q-36 0 -61 25t-25 60v299h854v-299q0 -35 -25 -60t-61 -25zM271 427q-15 -49 -15 -86q0 -105 75 -180.5t181 -75.5t181 75.5t75 180.5q0 37 -15 86h-482zM171 640h682q36 0 61 -25
t25 -60v-128h-854v128q0 35 25 60t61 25zM723 617h-420l72 108q13 20 37 20h205q23 0 36 -20zM753 427q-26 75 -92 122.5t-149 47.5t-149 -47.5t-92 -122.5h482zM512 341zM320 341.5q0 -79.5 56.5 -136t135.5 -56.5t135.5 56.5t56.5 136t-56.5 135.5t-135.5 56t-135.5 -56
t-56.5 -135.5zM619 405q-41 47 -103 47t-102 -47q-8 -8 -7 -19t9 -19t19 -7t19 9q24 27 62 27t62 -27q9 -8 21 -8q10 0 20 6q6 7 6.5 18.5t-6.5 19.5zM768 576h107v-85h-107v85z" />
    <glyph glyph-name="online_support" unicode="&#xe661;" 
d="M277 256h470v-256h-470v256zM213 341zM128 341.5q0 -35.5 25 -60.5t60.5 -25t60.5 25t25 60.5t-25 60.5t-60.5 25t-60.5 -25t-25 -60.5zM811 341zM725 341.5q0 -35.5 25 -60.5t60.5 -25t60.5 25t25 60.5t-25 60.5t-60.5 25t-60.5 -25t-25 -60.5zM832 491q0 49 -27.5 84.5
t-72.5 54.5t-102.5 26.5t-117.5 2.5t-117.5 -19.5t-102.5 -36t-72.5 -51t-27.5 -61.5v-214q0 -132 93.5 -226t226.5 -94t226.5 94t93.5 226v214zM640 341zM597 341.5q0 -17.5 12.5 -30t30.5 -12.5t30.5 12.5t12.5 30t-12.5 30t-30.5 12.5t-30.5 -12.5t-12.5 -30zM384 341z
M341 341.5q0 -17.5 12.5 -30t30.5 -12.5t30.5 12.5t12.5 30t-12.5 30t-30.5 12.5t-30.5 -12.5t-12.5 -30zM512 853q-42 0 -82 -8t-85.5 -30t-85 -56.5t-76 -91t-62.5 -129t-41.5 -175.5t-15.5 -226l213 -137v384l359 209l111 -145v-448l213 175q0 34 -2 72.5t-9.5 102
t-20.5 120t-38 118t-58 105t-85 72.5t-116 29l-29 59h-90zM960 384q-10 0 -15.5 -6t-5.5 -15v149q0 92 -46 171t-124.5 124.5t-171.5 45.5h-192q-9 0 -15 -5.5t-6 -15.5t6 -15.5t15 -5.5h192q124 0 211.5 -88t87.5 -211v-213q0 -10 6 -16t15.5 -6t15.5 6t6 16v-43
q0 -62 -43.5 -105.5t-106.5 -43.5h-277q-10 0 -15.5 -6t-5.5 -15.5t5.5 -15.5t15.5 -6h277q80 0 136 56t56 136v107q0 9 -5.5 15t-15.5 6zM960 427h-21q-18 0 -30.5 -12.5t-12.5 -30.5v-85q0 -18 12.5 -30.5t30.5 -12.5h21q18 0 30.5 12.5t12.5 30.5v85q0 18 -12.5 30.5
t-30.5 12.5zM512 85zM469 85.5q0 -17.5 12.5 -30t30.5 -12.5t30.5 12.5t12.5 30t-12.5 30t-30.5 12.5t-30.5 -12.5t-12.5 -30z" />
    <glyph glyph-name="organization" unicode="&#xe662;" 
d="M896 0h-768v683q0 35 25 60t60 25h598q35 0 60 -25t25 -60v-683v0zM128 0h768v-43h-768v43zM661 320h128v-107h-128v107zM448 320h128v-107h-128v107zM235 320h128v-107h-128v107zM661 149h128v-106h-128v106zM235 149h128v-106h-128v106zM661 491h128v-107h-128v107z
M448 491h128v-107h-128v107zM235 491h128v-107h-128v107zM661 661h128v-106h-128v106zM448 661h128v-106h-128v106zM235 661h128v-106h-128v106zM448 149h128v-192h-128v192z" />
    <glyph glyph-name="package" unicode="&#xe663;" 
d="M811 0h-598q-35 0 -60 25t-25 60v598q0 35 25 60t60 25h598q35 0 60 -25t25 -60v-598q0 -35 -25 -60t-60 -25v0zM629 555h-234q-13 0 -22.5 9.5t-9.5 22t9.5 22.5t22.5 10h234q13 0 22.5 -10t9.5 -22.5t-9.5 -22t-22.5 -9.5z" />
    <glyph glyph-name="paid" unicode="&#xe664;" 
d="M542 776.5q-13 12.5 -30 12.5t-30 -12l-256 -256q-13 -13 -13 -30t13 -30t30 -13t30 13l256 256q13 13 13 30t-13 29.5zM798 521l-256 256q-13 12 -30 12t-30 -12.5t-13 -29.5t13 -30l256 -256q13 -13 30 -13t30 13t13 30t-13 30zM798 21h-572q-16 0 -27.5 10t-15.5 24
l-76 393h810l-79 -393q-3 -14 -14.5 -24t-25.5 -10zM917 405h-810q-18 0 -30.5 12.5t-12.5 30.5v43q0 17 12.5 29.5t30.5 12.5h810q18 0 30.5 -12.5t12.5 -29.5v-43q0 -18 -12.5 -30.5t-30.5 -12.5zM657 367l-168 -169l-79 81l-47 -46l126 -126l215 215z" />
    <glyph glyph-name="parallel_tasks" unicode="&#xe665;" 
d="M768 619v85h-299v-277h-192v-86h192v-277h299v85h-213v192h213v86h-213v192h213zM128 533h213v-298h-213v298zM683 768h213v-213h-213v213zM683 213h213v-213h-213v213zM683 491h213v-214h-213v214z" />
    <glyph glyph-name="panorama" unicode="&#xe666;" 
d="M85 704v-683q8 3 21.5 7.5t57.5 15.5t91 19t117.5 15t139.5 7q110 0 216.5 -16t158.5 -32l52 -16v683q-6 -3 -17.5 -7t-51.5 -15t-85.5 -19.5t-119.5 -15.5t-153 -7t-152.5 6.5t-121 16t-84 19t-52.5 15.5zM512 171h9l-201 320l-173 -367q178 47 365 47zM512 171
q106 0 192 -13l-171 252l-166 -246q67 7 145 7zM868 128l-121 203l-107 -167q123 -11 228 -36zM725 480q0 -22 12.5 -37.5t30.5 -15.5t30.5 15.5t12.5 37.5t-12.5 37.5t-30.5 15.5t-30.5 -15.5t-12.5 -37.5z" />
    <glyph glyph-name="overtime" unicode="&#xe667;" 
d="M256 43v426h683v-426q0 -36 -25 -61t-61 -25h-512q-35 0 -60 25t-25 61zM939 555v-128h-683v128q0 35 25 60t60 25h512q36 0 61 -25t25 -60zM789 555zM725 554.5q0 -26.5 19 -45t45.5 -18.5t45 18.5t18.5 45t-18.5 45.5t-45 19t-45.5 -19t-19 -45.5zM427 555zM363 554.5
q0 -26.5 18.5 -45t45 -18.5t45.5 18.5t19 45t-19 45.5t-45.5 19t-45 -19t-18.5 -45.5zM789.5 683q-17.5 0 -30 -12.5t-12.5 -30.5v-85q0 -18 12.5 -30.5t30 -12.5t30 12.5t12.5 30.5v85q0 18 -12.5 30.5t-30 12.5zM426.5 683q-17.5 0 -30 -12.5t-12.5 -30.5v-85
q0 -18 12.5 -30.5t30 -12.5t30 12.5t12.5 30.5v85q0 18 -12.5 30.5t-30 12.5zM683 171h85v-86h-85v86zM555 171h85v-86h-85v86zM427 171h85v-86h-85v86zM683 299h85v-86h-85v86zM555 299h85v-86h-85v86zM427 299h85v-86h-85v86zM341 576zM85 576q0 -106 75 -181t181 -75
t181 75t75 181t-75 181t-181 75t-181 -75t-75 -181zM341 576zM149 576q0 -79 56.5 -135.5t136 -56.5t135.5 56.5t56 135.5t-56 135.5t-135.5 56.5t-136 -56.5t-56.5 -135.5zM320 725h43v-149h-43v149zM438 510l-29 -29l-81 82l28 28zM341 576zM309 576q0 -13 9.5 -22.5
t23 -9.5t22.5 9.5t9 22.5t-9 22.5t-22.5 9.5t-23 -9.5t-9.5 -22.5z" />
    <glyph glyph-name="phone_android" unicode="&#xe668;" 
d="M256 43v682q0 36 25 61t60 25h342q35 0 60 -25t25 -61v-682q0 -36 -25 -61t-60 -25h-342q-35 0 -60 25t-25 61zM683 747h-342q-9 0 -15 -6t-6 -16v-618q0 -10 6 -16t15 -6h342q9 0 15 6t6 16v618q0 10 -6 16t-15 6zM448 43h128v-43h-128v43z" />
    <glyph glyph-name="photo_reel" unicode="&#xe669;" 
d="M213 704q-35 0 -60 -25t-25 -60v-555q0 -35 25 -60t60 -25h342q35 0 60 25t25 60v555q0 35 -25 60t-60 25h-342zM299 619h42v-555h-42v555zM512 704v43q0 19 -11.5 30.5t-31.5 11.5h-170q-20 0 -31.5 -11.5t-11.5 -30.5v-43h256zM640 619h-299v-555h299v555zM448 107h-64
v85h64v-85zM448 491h-64v85h64v-85zM576 107h-64v85h64v-85zM512 491v85h64v-85h-64zM640 619v-43h64v-85h-64v-299h64v-85h-64v-43h256v555h-256zM832 107h-64v85h64v-85zM832 491h-64v85h64v-85z" />
    <glyph glyph-name="podium_with_audience" unicode="&#xe66a;" 
d="M875 640h-726l-21 -85l107 -64l-43 64h640l-43 -64l107 64zM192 555h640l-85 -256h-470zM512 299zM427 298.5q0 -35.5 25 -60.5t60 -25t60 25t25 60.5t-25 60.5t-60 25t-60 -25t-25 -60.5zM768 299zM683 298.5q0 -35.5 25 -60.5t60 -25t60 25t25 60.5t-25 60.5t-60 25
t-60 -25t-25 -60.5zM256 299zM171 298.5q0 -35.5 25 -60.5t60 -25t60 25t25 60.5t-25 60.5t-60 25t-60 -25t-25 -60.5zM384 107zM277 107q0 -44 31.5 -75.5t75.5 -31.5t75.5 31.5t31.5 75.5t-31.5 75t-75.5 31t-75.5 -31t-31.5 -75zM640 107zM533 107q0 -44 31.5 -75.5
t75.5 -31.5t75.5 31.5t31.5 75.5t-31.5 75t-75.5 31t-75.5 -31t-31.5 -75z" />
    <glyph glyph-name="planner" unicode="&#xe66b;" 
d="M107 85v512h810v-512q0 -35 -25 -60t-60 -25h-640q-35 0 -60 25t-25 60zM917 683v-128h-810v128q0 35 25 60t60 25h640q35 0 60 -25t25 -60zM704 683zM640 682.5q0 -26.5 19 -45t45 -18.5t45 18.5t19 45t-19 45.5t-45 19t-45 -19t-19 -45.5zM320 683zM256 682.5
q0 -26.5 19 -45t45 -18.5t45 18.5t19 45t-19 45.5t-45 19t-45 -19t-19 -45.5zM704 832q-18 0 -30.5 -12.5t-12.5 -30.5v-106q0 -18 12.5 -30.5t30.5 -12.5t30.5 12.5t12.5 30.5v106q0 18 -12.5 30.5t-30.5 12.5zM320 832q-18 0 -30.5 -12.5t-12.5 -30.5v-106
q0 -18 12.5 -30.5t30.5 -12.5t30.5 12.5t12.5 30.5v106q0 18 -12.5 30.5t-30.5 12.5zM277 448h128v-128h-128v128zM448 448h128v-128h-128v128zM619 448h128v-128h-128v128zM277 277h128v-128h-128v128zM448 277h128v-128h-128v128zM619 277h128v-128h-128v128z" />
    <glyph glyph-name="podium_with_speaker" unicode="&#xe66c;" 
d="M512 661zM384 661q0 -53 37.5 -90.5t90.5 -37.5t90.5 37.5t37.5 90.5t-37.5 90.5t-90.5 37.5t-90.5 -37.5t-37.5 -90.5zM768 339q-3 6 -9 16.5t-28 36.5t-48.5 46t-72.5 36.5t-98 16.5t-97.5 -16t-73.5 -38t-48 -44.5t-29 -37.5l-8 -16v-83h512v83zM875 363h-726l-21 -86
l107 -64l-43 64h640l-43 -64l107 64zM192 277h640l-85 -256h-470z" />
    <glyph glyph-name="picture" unicode="&#xe66d;" 
d="M853 21h-682q-36 0 -61 25t-25 61v554q0 36 25 61t61 25h682q36 0 61 -25t25 -61v-554q0 -36 -25 -61t-61 -25zM747 555zM683 554.5q0 -26.5 18.5 -45t45 -18.5t45.5 18.5t19 45t-19 45.5t-45.5 19t-45 -19t-18.5 -45.5zM427 555l-235 -342h469zM661 427l-170 -214h341z
" />
    <glyph glyph-name="privacy" unicode="&#xe66e;" 
d="M512 811q-88 0 -150.5 -63t-62.5 -151v-85h85v85q0 53 37.5 90.5t90.5 37.5t90.5 -37.5t37.5 -90.5v-85h85v85q0 88 -62.5 151t-150.5 63zM768 -43h-512q-35 0 -60 25t-25 61v384q0 35 25 60t60 25h512q35 0 60 -25t25 -60v-384q0 -36 -25 -61t-60 -25zM512 235zM384 235
q0 -53 37.5 -90.5t90.5 -37.5t90.5 37.5t37.5 90.5t-37.5 90.5t-90.5 37.5t-90.5 -37.5t-37.5 -90.5zM512 235zM448 234.5q0 -26.5 19 -45t45 -18.5t45 18.5t19 45t-19 45.5t-45 19t-45 -19t-19 -45.5zM555 277zM533 277.5q0 -8.5 6.5 -15t15 -6.5t15 6.5t6.5 15t-6.5 15
t-15 6.5t-15 -6.5t-6.5 -15z" />
    <glyph glyph-name="portrait_mode" unicode="&#xe66f;" 
d="M469 85q-28 0 -49.5 15.5t-32 37.5t-16.5 44t-7 37l-1 16v128h213v-128q0 -3 -0.5 -8.5t-3 -21t-6.5 -29.5t-12 -31.5t-18.5 -30t-28 -21t-38.5 -8.5zM661 491zM619 491v0q0 -18 12.5 -30.5t30 -12.5t30 12.5t12.5 30.5v0v0q0 17 -12.5 29.5t-30 12.5t-30 -12.5
t-12.5 -29.5v0zM277 491zM235 491v0q0 -18 12.5 -30.5t30 -12.5t30 12.5t12.5 30.5v0v0q0 17 -12.5 29.5t-30 12.5t-30 -12.5t-12.5 -29.5v0zM661 619q0 38 -28.5 63t-71 33t-92 4.5t-92.5 -17t-71.5 -36t-28.5 -47.5v-150q0 -80 56 -136t136 -56t136 56t56 136v150z
M469 811q-95 0 -154 -67.5t-59 -167.5v-49l43 -36v106l256 86l85 -86v-106l43 36v49q0 35 -5.5 63.5t-18.5 56t-39.5 46t-64.5 26.5l-22 43h-64zM555 491zM533 490.5q0 -8.5 6.5 -15t15 -6.5t15 6.5t6.5 15t-6.5 15t-15 6.5t-15 -6.5t-6.5 -15zM384 491zM363 490.5
q0 -8.5 6 -15t15 -6.5t15 6.5t6 15t-6 15t-15 6.5t-15 -6.5t-6 -15zM576 235q-4 -5 -12.5 -12t-36 -19t-58 -12t-57 10.5t-38.5 21.5l-11 11q-5 -1 -13.5 -3t-33 -11t-46.5 -21.5t-49 -35t-46.5 -49.5t-33 -68.5t-13.5 -89.5h683q0 48 -13.5 89.5t-33 68.5t-46.5 49.5
t-49 35t-46.5 21.5t-33 11t-13.5 3v0zM875 809l149 -149l-149 -149l-150 149zM768 768h213v-213h-213v213zM875 661zM811 661.5q0 -26.5 18.5 -45.5t45 -19t45.5 19t19 45.5t-19 45t-45.5 18.5t-45 -18.5t-18.5 -45z" />
    <glyph glyph-name="print" unicode="&#xe670;" 
d="M192 661h640v-64h-640v64zM85 363h854v149q0 35 -25 60t-61 25h-682q-36 0 -61 -25t-25 -60v-149zM171 128h682q36 0 61 25t25 60v171h-854v-171q0 -35 25 -60t61 -25zM853 512zM832 512q0 -9 6.5 -15t15 -6t15 6t6.5 15t-6.5 15t-15 6t-15 -6t-6.5 -15zM235 811h554
v-214h-554v214zM800 235h-576q-13 0 -22.5 9.5t-9.5 22t9.5 22.5t22.5 10h576q13 0 22.5 -10t9.5 -22.5t-9.5 -22t-22.5 -9.5zM235 235h554v-235h-554v235zM235 277h554v-42h-554v42zM341 192h363v-43h-363v43zM341 107h278v-43h-278v43z" />
    <glyph glyph-name="questions" unicode="&#xe671;" 
d="M768 -43h-597v768h426l171 -170v-598zM853 43h-597v768h427l170 -171v-597zM821 619h-160v160zM523 292q0 28 7.5 48.5t19 32.5t23 21.5t19 22.5t7.5 29q0 45 -42 45q-15 0 -25 -5.5t-14 -13.5t-5 -13.5t-1 -10.5h-58q0 7 1.5 15.5t7.5 22.5t16 24.5t30.5 19t47.5 8.5
t47.5 -8.5t30 -19.5t15 -26t6.5 -22.5t1 -15.5q0 -25 -12.5 -46t-28 -33.5t-28 -32.5t-12.5 -44h-53v2zM518 218q0 32 32 32q14 0 22 -8t9 -14t1 -10q0 -6 -1.5 -12t-9.5 -12t-21 -6q-18 0 -25 9.5t-7 20.5z" />
    <glyph glyph-name="registered_trademark" unicode="&#xe672;" 
d="M512 384zM64 384q0 -185 131.5 -316.5t316.5 -131.5t316.5 131.5t131.5 316.5t-131.5 316.5t-316.5 131.5t-316.5 -131.5t-131.5 -316.5zM533 324h-96v-192h-85v497h175q38 0 77 -10q28 -9 55 -28q26 -22 34 -47q13 -38 13 -64q0 -50 -23 -83q-30 -37 -66 -51l110 -207
v-5h-91zM437 393h90q24 0 40 6t30 17q10 7 17 26q7 16 7 34t-7 34q-7 18 -17 25q-17 13 -30 18q-16 6 -42 6h-88v-166z" />
    <glyph glyph-name="reuse" unicode="&#xe673;" 
d="M258 0h109l-15 508l-119 -43zM779 683zM672 683v0q0 -45 31.5 -76t75.5 -31t75 31t31 76v0v0q0 44 -31 75t-75 31t-75.5 -31t-31.5 -75v0zM235 0h-107l38 499l137 -49zM676 557q-24 79 -53 124q-57 70 -130 42q-30 -12 -123 -49t-116 -47q-42 -20 -65 -49t-23 -77
q0 -20 9.5 -39t23 -32t27 -23t23.5 -14l9 -5l314 130l36 -96l113 -2q0 -1 -8.5 24t-19.5 59t-17 54zM809 0h-169q-16 0 -27.5 10t-15.5 26l-55 365h363l-56 -365q0 -15 -12 -25.5t-28 -10.5v0zM896 384h-341q-10 0 -16 6t-6 15.5t6 15.5t16 6h341q10 0 15.5 -6t5.5 -15.5
t-5.5 -15.5t-15.5 -6z" />
    <glyph glyph-name="rotate_to_landscape" unicode="&#xe674;" 
d="M213 21v726q0 35 25 60t61 25h426q36 0 61 -25t25 -60v-726q0 -35 -25 -60t-61 -25h-426q-36 0 -61 25t-25 60zM725 768h-426q-10 0 -16 -6t-6 -15v-726q0 -9 6 -15t16 -6h426q10 0 16 6t6 15v726q0 9 -6 15t-16 6zM469 171l126 149h-252zM554.5 555q-52.5 0 -90 -38
t-37.5 -90v-128h85v128q0 17 12.5 29.5t30 12.5t30 -12.5t12.5 -29.5v-43h86v43q0 52 -38 90t-90.5 38z" />
    <glyph glyph-name="rotate_to_portrait" unicode="&#xe675;" 
d="M875 85h-726q-35 0 -60 25t-25 61v426q0 36 25 61t60 25h726q35 0 60 -25t25 -61v-426q0 -36 -25 -61t-60 -25zM128 597v-426q0 -10 6 -16t15 -6h726q9 0 15 6t6 16v426q0 10 -6 16t-15 6h-726q-9 0 -15 -6t-6 -16zM555 576l-126 -149h252zM512 448v-128
q0 -18 -12.5 -30.5t-30 -12.5t-30 12.5t-12.5 30.5v43h-86v-43q0 -53 38 -90.5t90.5 -37.5t90 37.5t37.5 90.5v128h-85z" />
    <glyph glyph-name="rules" unicode="&#xe676;" 
d="M832 -64h-640q-3 0 -7 1t-15 10.5t-19.5 26t-15.5 51t-7 82.5h768q0 -48 -6.5 -82.5t-16 -51t-19 -26t-15.5 -10.5zM171 832h682v-725h-682v725zM384 576h341v-43h-341v43zM384 491h341v-43h-341v43zM384 405h341v-42h-341v42zM384 320h341v-43h-341v43zM384 235h341v-43
h-341v43zM299 576h42v-43h-42v43zM299 491h42v-43h-42v43zM299 405h42v-42h-42v42zM299 320h42v-43h-42v43zM299 235h42v-43h-42v43z" />
    <glyph glyph-name="shop" unicode="&#xe67b;" 
d="M107 491h810v-406h-810v406zM107 85h810v-85h-810v85zM576 384h256v-384h-256v384zM192 384h299v-235h-299v235zM213 363h256v-192h-256v192zM778.5 181q-10.5 0 -10.5 -10v-43q0 -11 10.5 -11t10.5 11v43q0 10 -10.5 10zM512 491zM448 490.5q0 -26.5 19 -45t45 -18.5
t45 18.5t19 45t-19 45.5t-45 19t-45 -19t-19 -45.5zM768 491zM704 490.5q0 -26.5 19 -45t45 -18.5t45 18.5t19 45t-19 45.5t-45 19t-45 -19t-19 -45.5zM256 491zM192 490.5q0 -26.5 19 -45t45 -18.5t45 18.5t19 45t-19 45.5t-45 19t-45 -19t-19 -45.5zM853 768h-682
q-18 0 -30.5 -12.5t-12.5 -30.5v-64h768v64q0 18 -12.5 30.5t-30.5 12.5zM448 661h128v-170h-128v170zM789 661h-106l21 -170h128zM235 661h106l-21 -170h-128zM640 491zM576 490.5q0 -26.5 19 -45t45 -18.5t45 18.5t19 45t-19 45.5t-45 19t-45 -19t-19 -45.5zM960 491
q0 -28 -18.5 -46t-45.5 -18t-45.5 18t-18.5 45.5t18.5 46t45.5 18.5zM384 491zM320 490.5q0 -26.5 19 -45t45 -18.5t45 18.5t19 45t-19 45.5t-45 19t-45 -19t-19 -45.5zM64 491q0 -28 18.5 -46t45.5 -18t45.5 18t18.5 45.5t-18.5 46t-45.5 18.5zM683 661h-107v-170h128z
M896 661h-107l43 -170h128zM341 661h107v-170h-128zM128 661h107l-43 -170h-128z" />
    <glyph glyph-name="smartphone_tablet" unicode="&#xe67c;" 
d="M85 64v683q0 35 25 60t61 25h469q35 0 60 -25t25 -60v-683q0 -35 -25 -60t-60 -25h-469q-36 0 -61 25t-25 60zM640 768h-469q-10 0 -16 -6t-6 -15v-619q0 -10 6 -15.5t16 -5.5h469q10 0 15.5 5.5t5.5 15.5v619q0 9 -5.5 15t-15.5 6zM320 64h128v-43h-128v43zM512 21v512
q0 36 25 61t60 25h256q36 0 61 -25t25 -61v-512q0 -35 -25 -60t-61 -25h-256q-35 0 -60 25t-25 60zM853 555h-256q-9 0 -15 -6t-6 -16v-469q0 -10 6 -15.5t15 -5.5h256q10 0 16 5.5t6 15.5v469q0 10 -6 16t-16 6zM725 -11zM693 -10.5q0 -13.5 9.5 -23t23 -9.5t22.5 9.5t9 23
t-9 22.5t-22.5 9t-23 -9t-9.5 -22.5z" />
    <glyph glyph-name="slr_back_side" unicode="&#xe67d;" 
d="M853 683h-162l-42 64q-13 19 -37 19h-205q-23 0 -36 -19l-42 -64h-158q-36 0 -61 -25t-25 -61v-512q0 -35 25 -60t61 -25h682q36 0 61 25t25 60v512q0 36 -25 61t-61 25zM235 555h426q10 0 16 -6t6 -16v-341q0 -10 -6 -15.5t-16 -5.5h-426q-10 0 -16 5.5t-6 15.5v341
q0 10 6 16t16 6zM403 427l-147 -214h294zM576 448zM533 448q0 -18 12.5 -30.5t30.5 -12.5t30.5 12.5t12.5 30.5t-12.5 30.5t-30.5 12.5t-30.5 -12.5t-12.5 -30.5zM538 341l-103 -128h205zM725 683h128v17q0 11 -7 18t-18 7h-77q-11 0 -18.5 -7t-7.5 -18v-17zM811 512z
M768 512v0q0 -18 12.5 -30.5t30 -12.5t30 12.5t12.5 30.5v0v0q0 18 -12.5 30.5t-30 12.5t-30 -12.5t-12.5 -30.5v0zM811 384zM768 384v0q0 -18 12.5 -30.5t30 -12.5t30 12.5t12.5 30.5v0v0q0 18 -12.5 30.5t-30 12.5t-30 -12.5t-12.5 -30.5v0zM811 256zM768 256v0
q0 -18 12.5 -30.5t30 -12.5t30 12.5t12.5 30.5v0v0q0 18 -12.5 30.5t-30 12.5t-30 -12.5t-12.5 -30.5v0z" />
    <glyph glyph-name="sound_recording_copyright" unicode="&#xe67e;" 
d="M512 384zM64 384q0 -185 131.5 -316.5t316.5 -131.5t316.5 131.5t131.5 316.5t-131.5 316.5t-316.5 131.5t-316.5 -131.5t-131.5 -316.5zM442 316v-179h-84v484h186q39 0 75 -11q34 -13 55 -32q20 -17 34 -49q13 -29 13 -62q0 -35 -13 -64q-12 -28 -34 -47
q-24 -20 -55 -30q-36 -10 -75 -10h-102zM442 384h100q23 0 43 6q15 6 29 17q7 6 17 26q5 11 5 34q0 11 -5 32q-7 18 -17 28q-13 14 -29 19q-16 7 -43 7h-100v-169z" />
    <glyph glyph-name="speaker" unicode="&#xe67f;" 
d="M597 745v-43q118 -16 198 -106.5t80 -211.5t-80 -211.5t-198 -106.5v-43q136 17 228 120t92 241t-92 241t-228 120zM299 213h-150q-17 0 -29.5 12.5t-12.5 30.5v256q0 18 12.5 30.5t29.5 12.5h150v-342zM555 0l-256 213v342l256 213v-768zM597 527v-45q30 -13 47 -39
t17 -59t-17 -59t-47 -39v-45q48 15 77.5 54t29.5 89t-29.5 89t-77.5 54zM597 636v-43q74 -14 122.5 -73t48.5 -136t-48.5 -136t-122.5 -73v-43q92 16 153 87t61 165t-61 165.5t-153 86.5z" />
    <glyph glyph-name="start" unicode="&#xe680;" 
d="M811 0h-598q-35 0 -60 25t-25 60v598q0 35 25 60t60 25h598q35 0 60 -25t25 -60v-598q0 -35 -25 -60t-60 -25v0zM661 384l-234 171v-342z" />
    <glyph glyph-name="switch_camera" unicode="&#xe681;" 
d="M723 638h-420l72 109q13 19 37 19h205q23 0 36 -19zM299 661h-128v39q0 11 7 18t18 7h77q11 0 18.5 -7t7.5 -18v-39zM853 0h-682q-36 0 -61 25t-25 60v512q0 36 25 61t61 25h682q36 0 61 -25t25 -61v-512q0 -35 -25 -60t-61 -25v0zM725 363q0 88 -62.5 150.5t-150.5 62.5
q-77 0 -134 -47l25 -34q49 38 109 38q70 0 120.5 -50t50.5 -120h-75l96 -120l96 120h-75zM621 230q-49 -38 -109 -38q-70 0 -120.5 50t-50.5 121h75l-96 119l-96 -119h75q0 -88 62.5 -151t150.5 -63q77 0 134 47z" />
    <glyph glyph-name="statistics" unicode="&#xe682;" 
d="M491 789h42v-768h-42v768zM551 197l30 -30l-214 -214l-30 30zM688 -18l-30 -30l-214 214l30 31zM85 725h854v-597h-854v597zM64 747h896v-86h-896v86zM64 149h896v-42h-896v42zM672 -32zM640 -32q0 -13 9.5 -22.5t22.5 -9.5t22.5 9.5t9.5 22.5t-9.5 22.5t-22.5 9.5
t-22.5 -9.5t-9.5 -22.5zM352 -32zM320 -32q0 -13 9.5 -22.5t22.5 -9.5t22.5 9.5t9.5 22.5t-9.5 22.5t-22.5 9.5t-22.5 -9.5t-9.5 -22.5zM681 493l-126 -128l-128 128l-173 -171l47 -47l126 128l128 -128l172 171zM768 384l-149 149h149v-149z" />
    <glyph glyph-name="support" unicode="&#xe683;" 
d="M954 661l-186 -183q-6 0 -17 1.5t-40 15.5t-54 38.5t-38.5 52t-15.5 43.5l-1 15l185 186q-78 19 -164 -4.5t-143 -80.5q-27 -28 -41 -60.5t-14.5 -60.5t2.5 -57.5t9.5 -50.5t6.5 -39.5t-6 -24.5q-71 -74 -153.5 -148t-130.5 -114t-48 -41q-37 -37 -38.5 -88t34 -86.5
t86.5 -34t88 38.5q1 1 18 21.5t46 55t64.5 75.5t82.5 91.5t92 95.5q6 6 24 5t38.5 -8t49.5 -10.5t57 -3.5t60.5 14t60.5 41q57 58 81 142.5t5 162.5zM200.5 19q-22.5 0 -38 15.5t-15.5 38.5t15.5 39t38 16t38 -15.5t15.5 -37.5q0 -23 -15.5 -39.5t-38 -16.5z" />
    <glyph glyph-name="stack_of_photos" unicode="&#xe684;" 
d="M373 713l566 -190l-190 -566l-566 190zM410 629l447 -145l-133 -406l-446 145zM232 773l587 -108l-108 -588l-587 109zM282 695l462 -83l-74 -420l-463 82zM85 811h598v-598h-598v598zM149 747h470v-427h-470v427zM341 619q0 17 12.5 29.5t30.5 12.5t30.5 -12.5
t12.5 -29.5q0 -11 -11 -32t-21 -38l-11 -16q-43 62 -43 86zM427 448q0 -18 -12.5 -30.5t-30.5 -12.5t-30.5 12.5t-12.5 30.5q0 10 11 31.5t21 37.5l11 16q43 -62 43 -85zM288 540q-16 9 -20.5 26t5.5 31q10 16 26.5 20.5t31.5 -5.5q9 -5 22.5 -25t21.5 -37l9 -17
q-75 -6 -96 7zM480 527q16 -10 20.5 -26.5t-5.5 -31.5q-10 -16 -26.5 -20t-31.5 5q-6 3 -13.5 12.5t-14 20.5t-12.5 21.5l-10 17.5l-3 7q75 7 96 -6zM480 540q16 9 20.5 26t-5.5 31q-10 16 -26.5 20.5t-31.5 -5.5q-9 -4 -22.5 -24t-21.5 -37l-9 -18q75 -6 96 7zM288 527
q-16 -10 -20.5 -26.5t5.5 -31.5q10 -16 26.5 -20t31.5 5q9 6 22.5 26t21.5 36l9 17q-75 7 -96 -6zM384 533zM341 533.5q0 -17.5 12.5 -30t30.5 -12.5t30.5 12.5t12.5 30t-12.5 30t-30.5 12.5t-30.5 -12.5t-12.5 -30z" />
    <glyph glyph-name="survey" unicode="&#xe685;" 
d="M768 811h-213q0 -18 -12.5 -30.5t-30.5 -12.5t-30.5 12.5t-12.5 30.5h-213q-35 0 -60 -25t-25 -61v-682q0 -36 25 -61t60 -25h512q35 0 60 25t25 61v682q0 36 -25 61t-60 25zM768 21h-512q-10 0 -15.5 6t-5.5 16v682q0 10 5.5 16t15.5 6h512q10 0 15.5 -6t5.5 -16v-682
q0 -10 -5.5 -16t-15.5 -6zM555 811q0 -18 -12.5 -30.5t-30.5 -12.5t-30.5 12.5t-12.5 30.5h-149v-86q0 -17 12.5 -29.5t30.5 -12.5h298q18 0 30.5 12.5t12.5 29.5v86h-149zM512 896q-35 0 -60 -25t-25 -60.5t25 -60.5t60 -25t60 25t25 60.5t-25 60.5t-60 25zM512 768
q-18 0 -30.5 12.5t-12.5 30t12.5 30t30.5 12.5t30.5 -12.5t12.5 -30t-12.5 -30t-30.5 -12.5zM448 469h256v-42h-256v42zM320 491h85v-86h-85v86zM448 277h256v-42h-256v42zM320 299h85v-86h-85v86z" />
    <glyph glyph-name="synchronize" unicode="&#xe686;" 
d="M826 642l-67 -53q73 -89 73 -203q0 -133 -93.5 -226.5t-226.5 -93.5q-31 0 -60 7l-15 -84q39 -6 75 -6q110 0 203.5 54t147.5 147.5t54 203.5q0 68 -23.5 134t-67.5 120zM661 725l254 -34l-209 -209zM512 789q-110 0 -203.5 -54t-147.5 -147.5t-54 -203.5q0 -153 98 -265
l64 56q-77 90 -77 209q0 133 93.5 226.5t226.5 93.5q31 0 60 -6l15 83q-32 8 -75 8zM363 43l-254 34l209 209z" />
    <glyph glyph-name="tablet_android" unicode="&#xe687;" 
d="M171 21v726q0 35 25 60t60 25h512q35 0 60 -25t25 -60v-726q0 -35 -25 -60t-60 -25h-512q-35 0 -60 25t-25 60zM768 768h-512q-10 0 -15.5 -6t-5.5 -15v-662q0 -9 5.5 -15t15.5 -6h512q10 0 15.5 6t5.5 15v662q0 9 -5.5 15t-15.5 6zM448 21h128v-42h-128v42z" />
    <glyph glyph-name="template" unicode="&#xe688;" 
d="M85 747h854v-726h-854v726zM192 640h640v-107h-640v107zM192 448h277v-341h-277v341zM555 448h277v-341h-277v341z" />
    <glyph glyph-name="todo_list" unicode="&#xe689;" 
d="M380 510l-158 -156l-90 88l-47 -47l137 -137l205 205zM380 787l-158 -156l-90 88l-47 -47l137 -137l205 205zM380 233l-158 -156l-90 87l-47 -47l137 -136l205 205zM512 427h427v-86h-427v86zM512 704h427v-85h-427v85zM512 149h427v-85h-427v85z" />
    <glyph glyph-name="two_smartphones" unicode="&#xe68a;" 
d="M128 128v597q0 36 25 61t60 25h299q35 0 60 -25t25 -61v-597q0 -35 -25 -60t-60 -25h-299q-35 0 -60 25t-25 60zM512 747h-299q-9 0 -15 -6t-6 -16v-533q0 -10 6 -15.5t15 -5.5h299q10 0 15.5 5.5t5.5 15.5v533q0 10 -5.5 16t-15.5 6zM299 128h128v-43h-128v43zM427 43
v597q0 35 25 60t60 25h299q35 0 60 -25t25 -60v-597q0 -36 -25 -61t-60 -25h-299q-35 0 -60 25t-25 61zM811 661h-299q-10 0 -15.5 -5.5t-5.5 -15.5v-533q0 -10 5.5 -16t15.5 -6h299q9 0 15 6t6 16v533q0 10 -6 15.5t-15 5.5zM661 21zM629 21.5q0 -13.5 9.5 -23t23 -9.5
t22.5 9.5t9 23t-9 22.5t-22.5 9t-23 -9t-9.5 -22.5z" />
    <glyph glyph-name="unlock" unicode="&#xe68b;" 
d="M512 811q-88 0 -150.5 -63t-62.5 -151v-85h85v85q0 53 37.5 90.5t90.5 37.5t90.5 -37.5t37.5 -90.5h85q0 88 -62.5 151t-150.5 63zM768 -43h-512q-35 0 -60 25t-25 61v384q0 35 25 60t60 25h512q35 0 60 -25t25 -60v-384q0 -36 -25 -61t-60 -25zM512 235zM448 234.5
q0 -26.5 19 -45t45 -18.5t45 18.5t19 45t-19 45.5t-45 19t-45 -19t-19 -45.5z" />
    <glyph glyph-name="video_file" unicode="&#xe68c;" 
d="M853 -64h-682v896h469l213 -213v-683zM821 597h-202v203zM640 299l-213 128v-256z" />
    <glyph glyph-name="view_details" unicode="&#xe68d;" 
d="M149 811h726v-854h-726v854zM277 341h86v-85h-86v85zM277 512h86v-85h-86v85zM277 171h86v-86h-86v86zM277 683h86v-86h-86v86zM448 341h299v-85h-299v85zM448 512h299v-85h-299v85zM448 171h299v-86h-299v86zM448 683h299v-86h-299v86z" />
    <glyph glyph-name="vip" unicode="&#xe68e;" 
d="M811 -21h-598q-35 0 -60 25t-25 60v597q0 36 25 61t60 25h598q35 0 60 -25t25 -61v-597q0 -35 -25 -60t-60 -25zM339 299l45 194h60l-77 -269h-56l-76 269h59zM546 224h-53v269h53v-269zM666 318v-94h-54v269h92q27 0 46.5 -11t27.5 -28t10.5 -29t2.5 -22q0 -12 -3 -24.5
t-11 -27.5t-27 -24t-46 -9h-38zM666 365h36q32 0 32 40q0 23 -10 34t-22 11h-36v-85z" />
    <glyph glyph-name="voice_presentation" unicode="&#xe68f;" 
d="M853 427h-170l-86 -86v299q0 35 25 60t61 25h170q36 0 61 -25t25 -60v-128q0 -35 -25 -60t-61 -25zM363 491zM192 491v0q0 -71 50 -121t120.5 -50t120.5 50t50 121v0q0 70 -50 120t-120.5 50t-120.5 -50t-50 -120v0zM640 113q-3 6 -9.5 15.5t-30.5 34t-53 43.5
t-78.5 34.5t-105.5 15.5q-157 0 -251 -107q-18 -20 -27 -36v-70h555v70z" />
  </font>
</defs>
</svg>
